<svg xmlns="http://www.w3.org/2000/svg" xmlns:xlink="http://www.w3.org/1999/xlink" viewBox="0 0 482.62 662.01"><defs><style>.cls-1{fill:#e0e0e0;}.cls-2{fill:url(#linear-gradient);}.cls-3{fill:url(#linear-gradient-2);}.cls-4{fill:url(#linear-gradient-3);}.cls-5{fill:url(#linear-gradient-4);}.cls-6{fill:url(#linear-gradient-5);}.cls-7{fill:#6c63ff;}.cls-8{fill:#72351c;}.cls-9{fill:url(#linear-gradient-6);}.cls-10{opacity:0.1;isolation:isolate;}.cls-11{fill:url(#linear-gradient-7);}.cls-12{fill:#fda57d;}.cls-13{fill:url(#linear-gradient-8);}.cls-14{fill:url(#linear-gradient-9);}.cls-15{fill:url(#linear-gradient-10);}.cls-16{fill:url(#linear-gradient-11);}.cls-17{fill:#535461;}.cls-18{fill:#fff;}</style><linearGradient id="linear-gradient" x1="179.33" y1="0.92" x2="179.33" y2="-0.08" gradientTransform="translate(-62627 44.7) scale(351.91 531.16)" gradientUnits="userSpaceOnUse"><stop offset="0" stop-color="gray" stop-opacity="0.25"/><stop offset="0.54" stop-color="gray" stop-opacity="0.12"/><stop offset="1" stop-color="gray" stop-opacity="0.1"/></linearGradient><linearGradient id="linear-gradient-2" x1="178.85" y1="0.92" x2="178.85" y2="-0.08" xlink:href="#linear-gradient"/><linearGradient id="linear-gradient-3" x1="179.08" y1="0.92" x2="179.08" y2="-0.08" xlink:href="#linear-gradient"/><linearGradient id="linear-gradient-4" x1="179.12" y1="0.92" x2="179.12" y2="-0.08" xlink:href="#linear-gradient"/><linearGradient id="linear-gradient-5" x1="179.29" y1="0.92" x2="179.29" y2="-0.08" xlink:href="#linear-gradient"/><linearGradient id="linear-gradient-6" x1="179.33" y1="0.92" x2="179.33" y2="-0.08" xlink:href="#linear-gradient"/><linearGradient id="linear-gradient-7" x1="179.12" y1="0.92" x2="179.12" y2="-0.08" xlink:href="#linear-gradient"/><linearGradient id="linear-gradient-8" x1="179.08" y1="0.8" x2="179.08" y2="-0.2" gradientTransform="translate(-73622.1 425.33) scale(413.12 237.89)" xlink:href="#linear-gradient"/><linearGradient id="linear-gradient-9" x1="178.82" y1="0.92" x2="178.82" y2="-0.08" xlink:href="#linear-gradient"/><linearGradient id="linear-gradient-10" x1="178.94" y1="0.8" x2="178.94" y2="-0.2" gradientTransform="translate(-73622.1 425.33) scale(413.12 237.89)" xlink:href="#linear-gradient"/><linearGradient id="linear-gradient-11" x1="179.16" y1="0.8" x2="179.16" y2="-0.2" gradientTransform="translate(-73622.1 425.33) scale(413.12 237.89)" xlink:href="#linear-gradient"/></defs><title>Layer 3 (2)</title><g id="Layer_2" data-name="Layer 2"><g id="Layer_3" data-name="Layer 3"><polygon class="cls-1" points="482.6 648.51 482.6 615.61 252.5 615.61 245.8 615.61 245.8 648.51 246 648.51 482.6 648.51"/><path class="cls-2" d="M482.6,321.74v-.83c0,.28,0,.55,0,.83Z"/><path class="cls-3" d="M321.75,357.61a96.08,96.08,0,0,0-20.42,20.1h2.34A82.27,82.27,0,0,1,321.75,357.61Z"/><path class="cls-4" d="M342.9,218.9a115.62,115.62,0,0,1-5.91-13c-4.6-1.6-8.09-9.17-8.09-18.28a32,32,0,0,1,1.32-9.26,117.16,117.16,0,0,1-.82-13.84,116,116,0,0,1,43.76-90.85A63,63,0,0,1,384.5,58.21c21-20.8,55.4-25.1,73.1-48.8A11.78,11.78,0,0,1,459,12.54,13.76,13.76,0,0,0,458.1.11c-18.3,24.5-54,29.1-75.8,50.6a64.89,64.89,0,0,0-11.8,16.1,120.14,120.14,0,0,0-45.3,94.1,114.39,114.39,0,0,0,.9,14.3,34.84,34.84,0,0,0-1.4,9.6c0,9.4,3.6,17.3,8.4,19a114.44,114.44,0,0,0,7.2,15.5,110.65,110.65,0,0,0,61.86,68.12A107.16,107.16,0,0,1,342.9,218.9Z"/><path class="cls-5" d="M408.2,320.91l-.05-31-1.35-.52v32.49l1.42-.2C408.21,321.42,408.2,321.17,408.2,320.91Z"/><path class="cls-6" d="M451.3,28.91c10.4-.06,21.82-.66,31.3-4.34V16.28c-7.31,2.58-15.62,3.54-23.72,3.87A13.07,13.07,0,0,1,451.3,28.91Z"/><path class="cls-7" d="M406.8,321.87c-28.23,4.05-62.28,17-85.05,35.74,23.85-17.81,57.33-30,85.05-33.7Z"/><path class="cls-7" d="M303.25,378.41l179.35,3.7V321.74h0a37.19,37.19,0,0,1-74.36-.07l-1.42.2v2c-27.72,3.73-61.2,15.89-85.05,33.7A87,87,0,0,0,303.25,378.41Z"/><path class="cls-8" d="M338.8,206.21a5.61,5.61,0,0,1-1.81-.32,115.62,115.62,0,0,0,5.91,13A105.48,105.48,0,0,1,340.12,206,5.83,5.83,0,0,1,338.8,206.21Z"/><path class="cls-8" d="M338.8,169a5.4,5.4,0,0,1,1.59.26A106.51,106.51,0,0,1,372.34,110c-5.49-5.68-7.22-14.28-3.14-26.9a59.34,59.34,0,0,1,4-9.45,116,116,0,0,0-43.76,90.85,117.16,117.16,0,0,0,.82,13.84C331.93,172.77,335.13,169,338.8,169Z"/><path class="cls-9" d="M482.58,321.74c0-.28,0-.55,0-.83v-2.8a35.91,35.91,0,0,1-.18,3.61Z"/><path class="cls-10" d="M482.58,321.74c0-.28,0-.55,0-.83v-2.8a35.91,35.91,0,0,1-.18,3.61Z"/><path class="cls-11" d="M408.2,318.11V289.92l-.05,0,.05,31c0,.26,0,.51,0,.76l.15,0C408.26,320.48,408.2,319.3,408.2,318.11Z"/><path class="cls-10" d="M408.2,318.11V289.92l-.05,0,.05,31c0,.26,0,.51,0,.76l.15,0C408.26,320.48,408.2,319.3,408.2,318.11Z"/><path class="cls-7" d="M445.4,355.31a37.19,37.19,0,0,1-37-33.66l-.15,0a37.19,37.19,0,0,0,74.36.07l-.16,0A37.19,37.19,0,0,1,445.4,355.31Z"/><path class="cls-10" d="M445.4,355.31a37.19,37.19,0,0,1-37-33.66l-.15,0a37.19,37.19,0,0,0,74.36.07l-.16,0A37.19,37.19,0,0,1,445.4,355.31Z"/><path class="cls-12" d="M408.2,289.92v28.19c0,1.19.06,2.37.17,3.54a122.51,122.51,0,0,1,16-1.14h41.5a122.24,122.24,0,0,1,16.52,1.21,35.91,35.91,0,0,0,.18-3.61v-28a106.89,106.89,0,0,1-74.4-.23Z"/><path class="cls-12" d="M445.4,355.31a37.19,37.19,0,0,0,37-33.59c0-23.34-11.13-18.05-16.27-18.05h-41.5c-5,0-16.28-8.22-16.28,18A37.19,37.19,0,0,0,445.4,355.31Z"/><path class="cls-12" d="M392.73,118.72c-8.62-1.29-15.82-4-20.39-8.71a106.51,106.51,0,0,0-31.95,59.26c4.71,1.43,8.31,9.09,8.31,18.34a33.14,33.14,0,0,1-.51,5.84l54.31,44.16s33.26-21.23,80.1-4.87V144.68C439.51,149,410.55,134,392.73,118.72Z"/><path class="cls-12" d="M445.4,237.61c-20.8,0-37.6,4.2-37.6,9.4s16.8,9.4,37.6,9.4c18.94,0,34.56-3.48,37.2-8v-2.74C480,241.09,464.34,237.61,445.4,237.61Z"/><path class="cls-12" d="M394.72,119l-2-.28c17.82,15.3,46.78,30.31,89.87,26v-1.4C441.08,147.47,412.68,133.69,394.72,119Z"/><path class="cls-10" d="M394.72,119l-2-.28c17.82,15.3,46.78,30.31,89.87,26v-1.4C441.08,147.47,412.68,133.69,394.72,119Z"/><path class="cls-8" d="M391.72,118.57c18,14.7,49.36,29.48,90.88,25.29V108.17c-.07,0-3.13-1-3.2-1C462.58,110.9,420.19,122.07,391.72,118.57Z"/><path class="cls-8" d="M449.07,21.17c2.42,0,7.32-.92,9.81-1a14,14,0,0,0,.09-7.61C457.61,16,452.58,19.83,449.07,21.17Z"/><path class="cls-8" d="M384.5,58.21a63,63,0,0,0-11.34,15.45A116.35,116.35,0,0,1,482.6,54.33V24.57c-9.48,3.68-20.9,4.28-31.3,4.34a13.07,13.07,0,0,0,7.58-8.76c-2.49.1-5,.15-7.38.16A13.36,13.36,0,0,0,459,12.54a11.78,11.78,0,0,0-1.37-3.13C439.9,33.11,405.5,37.41,384.5,58.21Z"/><path class="cls-8" d="M373.16,73.66c-2.68,2.75-4.82,4.9-6.11,8.18-25.72,65-10.29,39.24,5.29,28.17,2.07-2,4.23-3.83,6.45-5.62a82.82,82.82,0,0,1-9.29-13.78l.65-.19c-.43-.77-.65-1.21-.65-1.21l93.08,21.65,20-40.16V54.33c-11.62-3.9-16.29-22.2-29.23-22.2C426,32.13,393,57.8,373.16,73.66Z"/><path class="cls-8" d="M378.79,104.39c-2.22,1.79-4.38,3.66-6.45,5.62,4.57,4.73,11.77,7.42,20.39,8.71A110.5,110.5,0,0,1,378.79,104.39Z"/><path class="cls-8" d="M370.15,90.42l-.65.19a82.82,82.82,0,0,0,9.29,13.78l.69-.56A91.29,91.29,0,0,1,370.15,90.42Z"/><path class="cls-8" d="M394.41,120.39c.66.1,13.83,1.39,14.51,1.47-6.35-5.19-25.12-16.55-29-21.22-.23.18-13.52,5.53-13.75,5.71C369.72,110.73,388.63,115.42,394.41,120.39Z"/><path class="cls-8" d="M369.5,89.21s.22.44.65,1.21L459.5,63.81l23.1,8.29V70.7l-23.1-8.29Z"/><path class="cls-8" d="M358.76,93c1.23,2.21-2.43,14.71,6.91,17.47,18.18-14.35,55-29.57,79.93-29.57a106.54,106.54,0,0,1,37,6.6V72.1l-23.1-8.29Z"/><path class="cls-8" d="M375.81,97.83c3.86,4.66,12.57,16,18.91,21.17,28.47,3.49,71.06,12,87.88,8.31.07,0-.07-19.13,0-19.14V54.33c-11.53-4.26-24.21,24.83-37.22,24.83C420.41,79.16,394,83.47,375.81,97.83Z"/><path class="cls-8" d="M402.16,287.43c1.53.69,3.07,1.34,4.64,1.95v-.07C405.23,288.72,403.69,288.09,402.16,287.43Z"/><path class="cls-8" d="M408.14,287.75a107.09,107.09,0,0,1-64-66.5c-.44-.78-.86-1.56-1.28-2.35a107.16,107.16,0,0,0,59.26,68.53c1.53.66,3.07,1.29,4.64,1.88v.07l1.35.52Z"/><path class="cls-8" d="M340.12,206a105.48,105.48,0,0,0,2.78,12.87c.42.79.84,1.57,1.28,2.35A105.51,105.51,0,0,1,340.36,206Z"/><path class="cls-8" d="M408.2,289.41v-1.64l-.06,0v2.15l.05,0Z"/><path class="cls-8" d="M408.2,289.41v.51a106.89,106.89,0,0,0,74.4.23v-.51A107.22,107.22,0,0,1,408.2,289.41Z"/><polygon class="cls-8" points="408.2 289.41 408.2 289.41 408.2 287.77 408.2 287.77 408.2 289.41"/><path class="cls-8" d="M408.2,287.77v1.64h0a107.22,107.22,0,0,0,74.4.23v-1.72a107.15,107.15,0,0,1-74.4-.15Z"/><path class="cls-8" d="M344.18,221.25c9.19,31.06,33.47,57.25,64,66.5l3.34-21.81C384.17,256.64,358.08,246.05,344.18,221.25Z"/><path class="cls-8" d="M402.5,237.61l-54.31-44.16C347.05,200,344,204.86,340.36,206a105.51,105.51,0,0,0,3.82,15.29,116.52,116.52,0,0,0,63.94,53.28l0-13.22h3.52a10.61,10.61,0,0,1,7.18-2.8h53.1a10.65,10.65,0,0,1,7.19,2.8h3.51V248.38c-2.64,4.55-18.26,8-37.2,8-20.8,0-37.6-4.2-37.6-9.4s16.8-9.4,37.6-9.4c18.94,0,34.56,3.48,37.2,8v-12.9C435.76,216.38,402.5,237.61,402.5,237.61Z"/><path class="cls-8" d="M408.2,274.56l-.08,0,0,13.22.06,0Z"/><path class="cls-8" d="M408.2,269.21a10.44,10.44,0,0,1,3.42-7.9H408.1l0,13.22.08,0Z"/><path class="cls-8" d="M482.6,269.21v-7.9h-3.51A10.66,10.66,0,0,1,482.6,269.21Z"/><path class="cls-8" d="M471.9,258.51H418.8a10.61,10.61,0,0,0-7.18,2.8h67.47A10.65,10.65,0,0,0,471.9,258.51Z"/><path class="cls-8" d="M408.2,287.77v-7.26h30.65a115.52,115.52,0,0,1-30.65-5.95v13.21Z"/><path class="cls-8" d="M482.6,280.51v-5.82a115.59,115.59,0,0,1-30.25,5.82Z"/><path class="cls-8" d="M405.7,257c-2.14,2-3.21,8.34-3.15,11.47l5.65,6.13a115.52,115.52,0,0,0,30.65,5.95h13.5a115.59,115.59,0,0,0,30.25-5.82v-5.48c0-3.13-.47-9.72-2.62-11.68Z"/><path class="cls-8" d="M445.2,272c-2.27,0-32.2-9.13-34.43-9.26L400,271.41,406.8,288c11.64,4.35,25.44,7.47,38.6,7.47a107.39,107.39,0,0,0,37.11-6.61l.09-8.33-.09-16.5C480.28,264.13,447.47,272,445.2,272Z"/><path class="cls-8" d="M452.35,280.51h-13.5q3.34.19,6.75.2T452.35,280.51Z"/><path class="cls-12" d="M328.9,187.61c0,9.11,3.49,16.68,8.09,18.28a116,116,0,0,1-6.77-27.54A32,32,0,0,0,328.9,187.61Z"/><path class="cls-12" d="M340.12,206A105.68,105.68,0,0,1,339,193.5c-.1-1.92-.16-3.85-.16-5.79a107.72,107.72,0,0,1,1.59-18.44,5.4,5.4,0,0,0-1.59-.26c-3.67,0-6.87,3.76-8.58,9.34A116,116,0,0,0,337,205.89a5.61,5.61,0,0,0,1.81.32A5.83,5.83,0,0,0,340.12,206Z"/><path class="cls-12" d="M334.25,202.86c2.33,7.06,16.49,2.48,9.3-9l1.15-3.24,3.49,2.84a33.14,33.14,0,0,0,.51-5.84c0-9.25-3.6-16.91-8.31-18.34-1,6-10.17,11.67-10.17,18C330.22,189.17,333.64,201,334.25,202.86Z"/><path class="cls-12" d="M340.12,206l.24-.07A106.47,106.47,0,0,1,339,193.5,105.68,105.68,0,0,0,340.12,206Z"/><path class="cls-12" d="M338.9,191.31q0,1.09.06,2.19a106.47,106.47,0,0,0,1.4,12.46c3.68-1.1,6.69-6,7.83-12.51l-3.49-2.84Z"/><path class="cls-13" d="M482.6,615.51H272.3a26.8,26.8,0,0,1-26.8-26.8V408.91a26.74,26.74,0,0,1,26.8-26.8h26.1c.9-1.49,1.89-2.95,2.93-4.4H252.5a14.51,14.51,0,0,0-14.5,14.5v208.9a14.51,14.51,0,0,0,14.5,14.5H482.6Z"/><path class="cls-14" d="M301.24,382.11c.74-1.49,1.55-2.95,2.43-4.4h-2.34c-1,1.45-2,2.91-2.93,4.4Z"/><path class="cls-15" d="M301.24,382.11c.74-1.49,1.55-2.95,2.43-4.4h-2.34c-1,1.45-2,2.91-2.93,4.4Z"/><path class="cls-7" d="M301.24,382.11H482.6v-4.4H303.67C302.79,379.16,302,380.62,301.24,382.11Z"/><path class="cls-16" d="M301.24,382.11H482.6v-4.4H303.67C302.79,379.16,302,380.62,301.24,382.11Z"/><path class="cls-17" d="M269.2,486c4.8-21.2,14.3-57.3,23.2-90.2a52.81,52.81,0,0,1,6-13.7H272.3a26.74,26.74,0,0,0-26.8,26.8v179.8a26.8,26.8,0,0,0,26.8,26.8H482.6V529.36c-12.38,1.22-24.06,1.85-34.4,1.85C394.9,531.21,309.8,514.51,269.2,486Z"/><path class="cls-17" d="M275.5,478.21c4.5-20.5,13.7-55.4,22.3-87.1a49.3,49.3,0,0,1,3.44-9H298.4c-2.68,4.39,21.06,18.32,19.78,23.05-8.9,32.9-44.18,59.65-49,80.85,40.6,28.5,125.7,45.2,179,45.2,10.34,0,22-.63,34.4-1.85v-9.57c-12.43,1.26-24.16,1.92-34.5,1.92C396.7,521.71,314.5,505.61,275.5,478.21Z"/><path class="cls-17" d="M285.57,384.19c-15.15,21.94-29.24,130.6-33.74,151.1,39,27.4,144.66,4.39,196.06,4.39,10.34,0,34.53,6.27,34.71-19.89V382.11H301.24C295.58,382.34,287.38,381.57,285.57,384.19ZM444.5,485.41a13.5,13.5,0,1,1-13.5,13.5A13.49,13.49,0,0,1,444.5,485.41Z"/><circle class="cls-18" cx="444.5" cy="498.91" r="13.5"/><polyline class="cls-1" points="482.6 662 482.6 653.01 246 653.01 246 662.01"/><polygon class="cls-10" points="245.8 648.51 0 648.51 0 653.01 246 653.01 246 648.51 245.8 648.51"/><rect class="cls-1" x="246" y="648.51" width="236.6" height="4.5"/><rect class="cls-10" x="246" y="648.51" width="236.6" height="4.5"/><polyline class="cls-18" points="482.6 0 482.6 16.28 482.6 24.57 482.6 54.33 482.6 70.7 482.6 72.1 482.6 87.51 482.6 108.17 482.6 143.28 482.6 144.68 482.6 232.74 482.6 245.64 482.6 248.38 482.6 261.31 482.6 269.21 482.6 274.69 482.6 280.51 482.6 287.92 482.6 289.64 482.6 290.14 482.6 318.11 482.6 320.91 482.6 321.74 482.6 377.71 482.6 382.11 482.6 519.79 482.6 529.36 482.6 615.51 482.6 615.61 482.6 648.51 482.6 653.01 482.6 662"/></g></g></svg>