<svg xmlns="http://www.w3.org/2000/svg" xmlns:xlink="http://www.w3.org/1999/xlink" width="24" height="24" viewBox="0 0 24 24">
  <defs>
    <clipPath id="clip-path">
      <path id="Path_1450" data-name="Path 1450" d="M12-4a6,6,0,0,0,6-6,6,6,0,0,0-6-6,6,6,0,0,0-6,6A6,6,0,0,0,12-4Zm0,3C7.995-1,0,1.01,0,5V6.5A1.5,1.5,0,0,0,1.5,8h21A1.5,1.5,0,0,0,24,6.5V5C24,1.01,16.005-1,12-1Z" transform="translate(0 16)" fill="#6b5cff" clip-rule="evenodd"/>
    </clipPath>
  </defs>
  <g id="Group_944" data-name="Group 944" transform="translate(0)">
    <g id="Group_943" data-name="Group 943" clip-path="url(#clip-path)">
      <path id="Path_1449" data-name="Path 1449" d="M-5-21H34V18H-5Z" transform="translate(-2.5 13.5)" fill="#6b5cff"/>
    </g>
  </g>
</svg>
