<svg xmlns="http://www.w3.org/2000/svg" width="32" height="32" viewBox="0 0 32 32">
  <g id="_assignment" data-name=" assignment" transform="translate(-542 -154)">
    <rect id="Path" width="32" height="32" transform="translate(542 154)" fill="rgba(0,0,0,0)"/>
    <path id="Icon" d="M23.112,28H2.889A2.848,2.848,0,0,1,0,25.2L.015,2.8H8.927a4.363,4.363,0,0,1,8.147,0H26V25.2A2.848,2.848,0,0,1,23.112,28ZM7.223,19.6a1.4,1.4,0,1,0,0,2.8h7.223a1.4,1.4,0,1,0,0-2.8Zm0-5.6a1.4,1.4,0,1,0,0,2.8H18.779a1.4,1.4,0,1,0,0-2.8Zm0-5.6a1.4,1.4,0,1,0,0,2.8H18.779a1.4,1.4,0,1,0,0-2.8ZM13,2.8a1.425,1.425,0,0,0-1.444,1.4,1.445,1.445,0,0,0,2.889,0A1.425,1.425,0,0,0,13,2.8Z" transform="translate(545 155)" fill="#6c63ff"/>
  </g>
</svg>
