<svg xmlns="http://www.w3.org/2000/svg" width="1876.869" height="531.883" viewBox="0 0 1876.869 531.883">
  <g id="background2" transform="translate(-4.634 -1387.595)">
    <path id="Path_1451" data-name="Path 1451" d="M2166.656,147.761c-15.87-1.456-130.222-16.38-244.666-83.164C1840.609,17.107,1766.677-88.7,1694.2-89.861,1573.39-91.793,1546.754,8.736,1490.658,64.6c-20.2,20.11-109.3,38.184-116.425,38.083-14.021-.2-99.776-28.237-170.052-73.974-78.9-51.349-146.632-120.495-237.439-109.953-146.129,16.965-261.837,257.7-288.575,258.984-58.252,2.79-353.821-32.416-383.892-49.776l49.457-11.517" transform="translate(-288.631 1477.857)" fill="none" stroke="#000" stroke-miterlimit="10" stroke-width="0.75" stroke-dasharray="12" opacity="0.3"/>
    <path id="Path_1435" data-name="Path 1435" d="M300.977,154.987c18.25-4.87,103.984-17.811,122.864-18.591s96.644,17.785,103.134,24.665c34.457,36.518,132.73,39.189,152.76,41.979s96.432-24.619,106.772-41.979" transform="translate(1062.13 1715.857)" fill="none" stroke="#000" stroke-miterlimit="10" stroke-width="0.75" stroke-dasharray="12" opacity="0.3"/>
    <path id="Path_1441" data-name="Path 1441" d="M294.275,116.444c9.344-2.494,61.75-46.448,121.653-49.235,56.6-2.633,120.8,35.851,130.011,35.471,18.88-.78,219.313,72.267,239.343,75.057s121.662-32.416,132-49.776l-17.006-11.517" transform="translate(963.715 1622.857)" fill="none" stroke="#000" stroke-miterlimit="10" stroke-width="0.75" stroke-dasharray="12" opacity="0.3"/>
    <path id="Path_1440" data-name="Path 1440" d="M58.339,53.923l-57.61-21a1.13,1.13,0,0,1-.22-2l8.6-4.77a2.18,2.18,0,0,0,1-1.3l4.93-15.6c0-.66,1.2-1,1.31-.36l.69,12.2a4.41,4.41,0,0,0,1.33,2.29l31.66,23a.71.71,0,0,0,.63.08.64.64,0,0,0,.2-1.06l-28.15-25.67a5.4,5.4,0,0,1-1.29-2.26l-3-10.19c0-.92.64-1.37,1.34-.64l6,5.27a1.09,1.09,0,0,0,1.55,0L39.129.313a1.08,1.08,0,0,1,1.78.41l18.71,51.72a1.09,1.09,0,0,1-1.38,1.43Z" transform="matrix(-0.799, 0.602, -0.602, -0.799, 1344.107, 1878.437)" fill="#6c63ff" opacity="0.5"/>
    <path id="Path_1442" data-name="Path 1442" d="M58.339,53.923l-57.61-21a1.13,1.13,0,0,1-.22-2l8.6-4.77a2.18,2.18,0,0,0,1-1.3l4.93-15.6c0-.66,1.2-1,1.31-.36l.69,12.2a4.41,4.41,0,0,0,1.33,2.29l31.66,23a.71.71,0,0,0,.63.08.64.64,0,0,0,.2-1.06l-28.15-25.67a5.4,5.4,0,0,1-1.29-2.26l-3-10.19c0-.92.64-1.37,1.34-.64l6,5.27a1.09,1.09,0,0,0,1.55,0L39.129.313a1.08,1.08,0,0,1,1.78.41l18.71,51.72a1.09,1.09,0,0,1-1.38,1.43Z" transform="translate(1256.632 1728.799) rotate(93)" fill="#6c63ff" opacity="0.5"/>
    <path id="Path_1435-2" data-name="Path 1435" d="M786.507,154.987c-18.25-4.87-103.984-17.811-122.864-18.591S567,154.18,560.509,161.06c-34.457,36.518-132.73,39.189-152.76,41.979S311.317,178.42,300.977,161.06" transform="translate(-256.97 1715.857)" fill="none" stroke="#000" stroke-miterlimit="10" stroke-width="0.75" stroke-dasharray="12" opacity="0.3"/>
    <path id="Path_1441-2" data-name="Path 1441" d="M917.284,116.444c-9.344-2.494-61.75-46.448-121.653-49.235-56.6-2.633-120.8,35.851-130.011,35.471-18.88-.78-219.313,72.267-239.343,75.057s-121.662-32.416-132-49.776l17.006-11.517" transform="translate(-282.631 1622.857)" fill="none" stroke="#000" stroke-miterlimit="10" stroke-width="0.75" stroke-dasharray="12" opacity="0.3"/>
    <path id="Path_1440-2" data-name="Path 1440" d="M719.48,228.05l-57.61,21a1.13,1.13,0,0,0-.22,2l8.6,4.77a2.18,2.18,0,0,1,1,1.3l4.93,15.6c0,.66,1.2,1,1.31.36l.69-12.2a4.41,4.41,0,0,1,1.33-2.29l31.66-23a.71.71,0,0,1,.63-.08.64.64,0,0,1,.2,1.06l-28.15,25.67a5.4,5.4,0,0,0-1.29,2.26l-3,10.19c0,.92.64,1.37,1.34.64l6-5.27a1.09,1.09,0,0,1,1.55,0l11.82,11.6a1.08,1.08,0,0,0,1.78-.41l18.71-51.72a1.09,1.09,0,0,0-1.38-1.43Z" transform="matrix(0.799, 0.602, -0.602, 0.799, 190.222, 1255.358)" fill="#6c63ff" opacity="0.5"/>
    <path id="Path_1442-2" data-name="Path 1442" d="M719.48,228.05l-57.61,21a1.13,1.13,0,0,0-.22,2l8.6,4.77a2.18,2.18,0,0,1,1,1.3l4.93,15.6c0,.66,1.2,1,1.31.36l.69-12.2a4.41,4.41,0,0,1,1.33-2.29l31.66-23a.71.71,0,0,1,.63-.08.64.64,0,0,1,.2,1.06l-28.15,25.67a5.4,5.4,0,0,0-1.29,2.26l-3,10.19c0,.92.64,1.37,1.34.64l6-5.27a1.09,1.09,0,0,1,1.55,0l11.82,11.6a1.08,1.08,0,0,0,1.78-.41l18.71-51.72a1.09,1.09,0,0,0-1.38-1.43Z" transform="translate(882.998 1053.806) rotate(87)" fill="#6c63ff" opacity="0.5"/>
  </g>
</svg>
