<svg xmlns="http://www.w3.org/2000/svg" xmlns:xlink="http://www.w3.org/1999/xlink" width="1901.231" height="540.464" viewBox="0 0 1901.231 540.464">
  <defs>
    <linearGradient id="linear-gradient" x1="2.196" y1="1" x2="2.196" gradientUnits="objectBoundingBox">
      <stop offset="0" stop-color="gray" stop-opacity="0.251"/>
      <stop offset="0.54" stop-color="gray" stop-opacity="0.122"/>
      <stop offset="1" stop-color="gray" stop-opacity="0.102"/>
    </linearGradient>
  </defs>
  <g id="background1" transform="translate(3.909 -921.563)">
    <path id="Path_1443" data-name="Path 1443" d="M212.57,123.067c18.25-4.87,49.886-55.027,116.271-56.673S462.7,105.56,478.11,116.48c7.71,5.46,14.11,12.53,20.6,19.41a668.227,668.227,0,0,0,114.66,96.94c16.81,11.23,59.161,13.541,79.191,16.331s77.94-39.547,88.28-56.907" transform="translate(1116.159 947.857)" fill="none" stroke="#000" stroke-miterlimit="10" stroke-width="0.75" stroke-dasharray="12" opacity="0.3"/>
    <path id="Path_1444" data-name="Path 1444" d="M368.65,116.444C380.157,113.951,444.7,70,518.468,67.209c69.7-2.633,148.765,35.851,160.111,35.471,23.251-.78,275.786,152.09,300.453,154.88s86.536-56.846,99.27-74.206l-41.586,49.536" transform="translate(818.697 854.857)" fill="none" stroke="#000" stroke-miterlimit="10" stroke-width="0.75" stroke-dasharray="12" opacity="0.3"/>
    <path id="Path_1445" data-name="Path 1445" d="M733.251,512.52c-21.35.53-62.806-14.809-77.556-30.249-11.2-11.72-79.985-84.541-98.8-106.991s-44.2-39.75-72.62-46.73c-22.84-5.62-46.86-4.56-69.82-9.61s-267,78.98-273.351,56.34" transform="translate(1163.749 860.857)" fill="none" stroke="#000" stroke-miterlimit="10" stroke-width="0.75" stroke-dasharray="12" opacity="0.3"/>
    <path id="Path_1446" data-name="Path 1446" d="M662.5,228.05l57.61,21a1.13,1.13,0,0,1,.22,2l-8.6,4.77a2.18,2.18,0,0,0-1,1.3l-4.93,15.6c0,.66-1.2,1-1.31.36l-.69-12.2a4.41,4.41,0,0,0-1.33-2.29l-31.66-23a.71.71,0,0,0-.63-.08.64.64,0,0,0-.2,1.06l28.15,25.67a5.4,5.4,0,0,1,1.29,2.26l3,10.19c0,.92-.64,1.37-1.34.64l-6-5.27a1.09,1.09,0,0,0-1.55,0l-11.82,11.6a1.08,1.08,0,0,1-1.78-.41l-18.71-51.72a1.09,1.09,0,0,1,1.38-1.43Z" transform="translate(566.162 955.857)" fill="#6c63ff" opacity="0.5"/>
    <path id="Path_1447" data-name="Path 1447" d="M58.339,53.923l-57.61-21a1.13,1.13,0,0,1-.22-2l8.6-4.77a2.18,2.18,0,0,0,1-1.3l4.93-15.6c0-.66,1.2-1,1.31-.36l.69,12.2a4.41,4.41,0,0,0,1.33,2.29l31.66,23a.71.71,0,0,0,.63.08.64.64,0,0,0,.2-1.06l-28.15-25.67a5.4,5.4,0,0,1-1.29-2.26l-3-10.19c0-.92.64-1.37,1.34-.64l6,5.27a1.09,1.09,0,0,0,1.55,0L39.129.313a1.08,1.08,0,0,1,1.78.41l18.71,51.72a1.09,1.09,0,0,1-1.38,1.43Z" transform="translate(1320.241 1058.208) rotate(115)" fill="#6c63ff" opacity="0.5"/>
    <path id="Path_1448" data-name="Path 1448" d="M58.339,53.923l-57.61-21a1.13,1.13,0,0,1-.22-2l8.6-4.77a2.18,2.18,0,0,0,1-1.3l4.93-15.6c0-.66,1.2-1,1.31-.36l.69,12.2a4.41,4.41,0,0,0,1.33,2.29l31.66,23a.71.71,0,0,0,.63.08.64.64,0,0,0,.2-1.06l-28.15-25.67a5.4,5.4,0,0,1-1.29-2.26l-3-10.19c0-.92.64-1.37,1.34-.64l6,5.27a1.09,1.09,0,0,0,1.55,0L39.129.313a1.08,1.08,0,0,1,1.78.41l18.71,51.72a1.09,1.09,0,0,1-1.38,1.43Z" transform="translate(1185.988 960.799) rotate(93)" fill="#6c63ff" opacity="0.5"/>
    <g id="Group_942" data-name="Group 942" transform="translate(-86.87 971.957)" opacity="0.9">
      <path id="Path_1333" data-name="Path 1333" d="M167.33,436.82,165,439.14c.722.18,1.444.34,2.178.51,1.4.31,2.819.61,4.24.9.979.2,1.957.39,2.947.56a178.662,178.662,0,0,0,20.7,2.57c3.774.25,7.56.37,11.323.37a14.837,14.837,0,0,0,1.887-2.89c1.538-3.09,7.537-8.57,13.978-13.84-.128.89-.21,1.4-.21,1.4v.35l-.07,14.27.664-.07a136.672,136.672,0,0,0,36.3-8.39q2.761-1.06,5.417-2.25l.909-.4.443-.21c.8-3.44,1.538-6.74,2.132-9.37l.07-.37c.082-.35.151-.7.233-1s.128-.62.2-.9.082-.41.128-.6c.4-1.81.617-2.89.617-2.89a12.194,12.194,0,0,1,.21-1.64,13.71,13.71,0,0,1,4.508-8.1,7.426,7.426,0,0,0,2.167-3.21h0c1.281-3.4,1.06-7.84.874-9.86-.058-.67-.128-1.07-.128-1.07s4.438-2,7.059-8.21a21.854,21.854,0,0,0,1.27-4c1.9-8.79,7.758-27.33,8.48-29.61h0l.07-.22s.151-.32.419-.93c0-.07.058-.14.082-.22l.1-.23c2.633-6.19,12.814-31.28,11.987-47.94-.9-19.13,1.351-29.09,1.351-29.09l2.633-41.58v-.44l.151-2.43v-.69c.384.25.734.49,1.013.69l.641.46.221.18v-.48c.408.29.641.48.641.48s1.165-16.15,1.048-25.28a27.843,27.843,0,0,0-.093-2.9c7.875-2.29,19.8-6.07,20.537-8,.571-1.59,5-5.09,8.806-7.89l2.085-1.5,1.083-.77c1.514-1.06,2.551-1.75,2.551-1.75a2.575,2.575,0,0,1-.827-.27c.419-.16.874-.35,1.34-.57,1.165-.52,2.33-1.16,3.681-1.91,5.6-3.17,12.441-8.17,16.25-13,2.12-2.71,3.3-5.38,2.784-7.65a3.787,3.787,0,0,0-.186-.64l16.1-19.87,1.875-2.32a3.381,3.381,0,0,0-.4-4.74l.07-.08-.116-.07-.7-.4.128.1a2.583,2.583,0,0,0-3.029.56l-.28.35-15.528,19.12-2.737,3.39c-6.057-1.57-14.875,2.85-21.83,7.35-2.516,1.63-4.8,3.26-6.6,4.63l-1.165.91c-.547-1-.862-1.7-.862-1.7-.338,3.16-13.338,7.9-16.366,9.62a12.356,12.356,0,0,1-4.531,1.31c.431-12-10.391-24.65-10.391-24.65l-20.968-22.95h0l-1.293-1.41-4.147-4.53a17.972,17.972,0,0,1-.373-4.28,23.056,23.056,0,0,1,1.165-6.94c.128-.36.268-.73.408-1.1a21.9,21.9,0,0,1,1.456-3c.221-.37.443-.75.687-1.12h.117c-.454,1.38-.932,2.77-1.258,4.16-.093.38-.175.75-.233,1.13l-.07.47a13.091,13.091,0,0,0-.093,1.79c0,.07,0,.16,0,.26.21,2.41,2.272,11.15,5.09,10.76a1.76,1.76,0,0,0,1.514-.63,6.347,6.347,0,0,0,.839-1,6.178,6.178,0,0,0,.478-.84,8.54,8.54,0,0,0,.478-1.2,20.851,20.851,0,0,0,.664-7,17.465,17.465,0,0,1-.419,3.26,70.894,70.894,0,0,0-.186-7.35v-2.72h0a11.18,11.18,0,0,1,.058-1.39h.326v-.01h.338a39.344,39.344,0,0,0,7.723-2,37.019,37.019,0,0,0,8.434-4.41,10.215,10.215,0,0,0,1.654-.2,9.2,9.2,0,0,0,4.182-2l.233-.22a4.5,4.5,0,0,1-1,4.58.791.791,0,0,1-.128.14h.163a9.477,9.477,0,0,0,7.583-5,1.489,1.489,0,0,0,.14-.27,15.881,15.881,0,0,0,1.013-8.89,51.76,51.76,0,0,1-.757-9,19.955,19.955,0,0,1,.233-2.19v-.26a12.192,12.192,0,0,0,0-2.44.958.958,0,0,0,0-.17,8.26,8.26,0,0,0-.28-1.31h.1a2.642,2.642,0,0,0,1.922-.85l.21-.15a3.674,3.674,0,0,0,.676-.68,5.061,5.061,0,0,0,.641-1,15.062,15.062,0,0,0,.8-2.45,32.415,32.415,0,0,0,1.363-10.29c-.082,1-.233,2.1-.419,3.15.326-4-.326-7.84-3.39-10.72-2.1-2-5.044-3.15-7.886-4.3A5.984,5.984,0,0,1,310.772,42a5.73,5.73,0,0,1-.792-2.74c-.99-5.82-7.362-9.85-13.7-12.21-8.154-3-17.974-4.35-25.814-.73-3.809,1.75-6.815,4.51-10.251,6.76-4.357,2.83-9.319,4.82-13.978,7.3s-9.109,5.62-11.346,9.84-1.887,9.2-1.27,14c.315,2.44.7,4.88.85,7.28v.59a33.024,33.024,0,0,1-15.528,29.29,13.214,13.214,0,0,0-3.4,2.53,2.8,2.8,0,0,0-.28,3.61,4.355,4.355,0,0,0,.944.76,7.313,7.313,0,0,1,1.083.8,2.747,2.747,0,0,1,.606.88,4.583,4.583,0,0,1,.093,2.91.412.412,0,0,1-.058.26l-.14.5a27.947,27.947,0,0,1-9.016,13.09c.186,1.18,1.864,1.64,3.25,1.82h0a87.722,87.722,0,0,0,11.008.68h1.584c-.175.36-.338.73-.513,1.12h0c-.373.85-.78,1.8-1.165,2.8h0c-1.677,4.25-3.238,9.45-2.539,12.89,1.351,6.7,5.393,37.31,3.378,42.67s3.145,44.58,3.145,44.58.14.61.408,1.68c.326,1.32.85,3.34,1.526,5.81,0,.1-.093.21-.151.31-3.145,6.35-6.686,13.3-8.48,16.12-2.411,3.79-2.446,17.83,1.433,30.68,1.992,6.62,5.032,12.92,9.319,17.34,0,0,4.4,5.33,4.065,8a1.652,1.652,0,0,1-.221.64c-.955,1.6-.466,4.05-.082,5.37a8.842,8.842,0,0,0,.315.94v1L237,358.1a84,84,0,0,1-.932,11.57c-5.37,5.71-13.652,14-17.566,15.4-6.034,2.11-51.045,49-51.045,49s.361.56,1.06,1.48Z" transform="translate(-82.039 -24.1)" fill="url(#linear-gradient)"/>
      <path id="Path_1334" data-name="Path 1334" d="M321.76,183.12a10,10,0,0,1-3.7,1.4c-4.83.15-8.81-12.93-8.81-12.93s1.38-1.39,3.57-3.34c6.47-5.76,20.05-16.39,26.42-10.44C346.38,164.48,330.08,178.62,321.76,183.12Z" transform="translate(-50.1 -24.1)" fill="#a1616a"/>
      <path id="Path_1335" data-name="Path 1335" d="M173,441.11a132.786,132.786,0,0,0,17.77,2.57c-2.53-4.47-19-9.78-19-9.78l-2.23,2.6-1.06,1.25-1.62,1.9c1.2.31,2.42.61,3.64.9C171.32,440.75,172.16,440.94,173,441.11Z" transform="translate(-44.061 -24.1)" fill="#a1616a"/>
      <path id="Path_1336" data-name="Path 1336" d="M321.76,183.12a10,10,0,0,1-3.7,1.4c-4.83.15-8.81-12.93-8.81-12.93s1.38-1.39,3.57-3.34C314.36,171.81,318.72,181.35,321.76,183.12Z" transform="translate(-50.1 -24.1)" opacity="0.1"/>
      <path id="Path_1337" data-name="Path 1337" d="M290.78,178.41s4,.29,6.54-1.42,13.5-6.39,13.78-9.52c0,0,6.54,15.92,10.23,16.49,0,0-11.37,8.95-12.22,11.79s-23,9.8-23,9.8Z" transform="translate(-50.1 -24.1)" fill="#ff748e"/>
      <path id="Path_1338" data-name="Path 1338" d="M290.78,178.41s4,.29,6.54-1.42,13.5-6.39,13.78-9.52c0,0,6.54,15.92,10.23,16.49,0,0-11.37,8.95-12.22,11.79s-23,9.8-23,9.8Z" transform="translate(-50.1 -24.1)" fill="#5e5a6b"/>
      <path id="Path_1339" data-name="Path 1339" d="M168.46,437.75c.49.75,1.16,1.71,2,2.8.84.2,1.68.39,2.53.56a132.782,132.782,0,0,0,17.77,2.57c-2.53-4.47-19-9.78-19-9.78l-2.23,2.6Z" transform="translate(-44.093 -24.1)" opacity="0.1"/>
      <path id="Path_1340" data-name="Path 1340" d="M168.63,435s.3.56.89,1.47a42.535,42.535,0,0,0,3.49,4.61,132.786,132.786,0,0,0,17.77,2.57c3.24.25,6.49.37,9.72.37h1.4a14.316,14.316,0,0,0,1-2c1.23-2.92,5.89-8,11-13,.24-.25.5-.49.74-.73,7.29-7.07,15.17-13.76,15.17-13.76l.76-48.69s-1.73,2.31-4.19,5.39c-4.52,5.65-11.51,13.9-14.79,15.25C206.52,388.62,168.63,435,168.63,435Z" transform="translate(-44.811 -24.1)" fill="#5e5a6b"/>
      <path id="Path_1341" data-name="Path 1341" d="M168.63,435s.3.56.89,1.47a42.535,42.535,0,0,0,3.49,4.61,132.786,132.786,0,0,0,17.77,2.57c3.24.25,6.49.37,9.72.37h1.4a14.316,14.316,0,0,0,1-2c1.23-2.92,5.89-8,11-13,.24-.25.5-.49.74-.73,7.29-7.07,15.17-13.76,15.17-13.76l.76-48.69s-1.73,2.31-4.19,5.39c-4.52,5.65-11.51,13.9-14.79,15.25C206.52,388.62,168.63,435,168.63,435Z" transform="translate(-44.811 -24.1)" opacity="0.1"/>
      <path id="Path_1342" data-name="Path 1342" d="M188.47,428.07a60.351,60.351,0,0,0,12.65,0C208.65,427.36,203,431.91,188.47,428.07Z" transform="translate(-44.698 -24.1)" opacity="0.1"/>
      <path id="Path_1343" data-name="Path 1343" d="M185.06,432.91s9.95,5.68,13.79,2.84S195.15,438.49,185.06,432.91Z" transform="translate(-44.559 -24.1)" opacity="0.1"/>
      <path id="Path_1344" data-name="Path 1344" d="M225.13,313.28a3.9,3.9,0,0,1,.16,2.78,6.22,6.22,0,0,0-.42,3.23,14,14,0,0,0,.31,1.9c.16.67.31,1.12.31,1.12l1.68,37.51a98.124,98.124,0,0,1-.78,11.46c-.54,4-1.46,8.11-3,10.52-3.39,5.2-7.82,39.2-8.74,46.54l-.17,1.39-.06,13.54a103.619,103.619,0,0,0,31.16-8.39q2.37-1.06,4.65-2.25l.78-.4.38-.21h0c.69-3.52,1.32-6.83,1.79-9.35l.06-.37c.07-.36.14-.7.2-1s.11-.62.17-.9.07-.41.11-.6c.2-1.12.32-1.76.32-1.76a17.251,17.251,0,0,1,.39-2.77,13.64,13.64,0,0,1,3.57-6.88,8.61,8.61,0,0,0,2.16-4.43h0a32.779,32.779,0,0,0,.29-9.57A5.188,5.188,0,0,0,261,394c1.16-.82,4.27-3.46,5.95-9.28a23.923,23.923,0,0,0,.6-2.55c1.71-9.28,7.2-29.56,7.2-29.56s.21-.55.57-1.54h0c.13-.33.27-.72.42-1.15a1.107,1.107,0,0,1,.07-.22l.09-.23c2.87-8.21,10.06-30.49,9.46-45.68-.77-18.94,1.13-28.8,1.13-28.8l2.37-44v-1.1l.22-4.14-21.8-.65h-1.27l-5.18-.16h-.72l-7-.21-3.13-.09-5.64-.17h-2.06l-4.35-.13-12.68,7.39s-.49,1.23-1.3,3.18c-.17.44-.37.93-.59,1.44s-.43,1.07-.68,1.66l-1.8,4.32c-.21.51-.42,1-.64,1.54-2.68,6.38-5.73,13.44-7.27,16.27-1.91,3.52-2,16,.63,28,1.65,7.41,4.37,14.66,8.41,19.57a28,28,0,0,1,3.12,5.57Z" transform="translate(-47.041 -24.1)" fill="#5e5a6b"/>
      <path id="Path_1345" data-name="Path 1345" d="M239.34,414.43s7.77,6.13,11,6.11S239.34,414.43,239.34,414.43Z" transform="translate(-46.377 -24.1)" opacity="0.1"/>
      <path id="Path_1346" data-name="Path 1346" d="M286.09,158v12.51l-8.26-3.56-8.22-3.55-17.9-17.62s-14.17-9.21-21.75-17.59c-4.33-4.79-6.51-9.3-2.69-11.68a23.679,23.679,0,0,0,4.95-4.35,80.908,80.908,0,0,0,9.88-14.58c.12-.21.24-.42.35-.63,3.69-6.77,6.13-12.55,6.13-12.55s10.38,3.33,17.06,8c.54.37,1.05.76,1.54,1.16,3.73,3.06,5.57,6.59,2.15,10.12a26.714,26.714,0,0,0-2.45,2.92h0a21.669,21.669,0,0,0-1.52,2.39c-.21.37-.4.74-.58,1.11a25.55,25.55,0,0,0-2.28,15.17Z" transform="translate(-47.115 -24.1)" fill="#a1616a"/>
      <path id="Path_1347" data-name="Path 1347" d="M284.58,68.7c.43.74,1,1.39,1.43,2.15.84,1.6.7,3.5.62,5.31a30.37,30.37,0,0,0,.55,8.46c.59,2.49,1.68,4.9,1.77,7.46.13,3.62-1.75,7-3.57,10.09a7.28,7.28,0,0,0,5.2-2.42,5,5,0,0,1-1,4.67c3-.14,5.51-2.48,6.65-5.23a18.39,18.39,0,0,0,.85-8.79,59,59,0,0,1-.64-8.89,34.276,34.276,0,0,0,.26-4.85c-.28-3.22-2.26-6-4.16-8.62l-3.85-5.27a2.7,2.7,0,0,0-1.06-1C284,60.22,283.56,66.92,284.58,68.7Z" transform="translate(-47.968 -24.1)" fill="#464353"/>
      <path id="Path_1348" data-name="Path 1348" d="M269.33,103.67a26.718,26.718,0,0,0-2.45,2.92h0a21.674,21.674,0,0,0-1.52,2.39c-.21.37-.4.74-.58,1.11a29.58,29.58,0,0,1-14.19-4.51A29.93,29.93,0,0,1,242.45,98c-.12-.16-.24-.33-.35-.5.12-.21.24-.42.35-.63,3.69-6.77,6.13-12.55,6.13-12.55s10.38,3.33,17.06,8c.54.37,1.05.76,1.54,1.16C270.91,96.61,272.75,100.14,269.33,103.67Z" transform="translate(-46.895 -24.1)" opacity="0.1"/>
      <path id="Path_1349" data-name="Path 1349" d="M296.3,79.17a29.859,29.859,0,0,1-24.428,29.36,31.1,31.1,0,0,1-5.412.48h-1.13a29.58,29.58,0,0,1-14.77-4.54,29.8,29.8,0,1,1,45.74-25.3Z" transform="translate(-47.546 -24.1)" fill="#a1616a"/>
      <path id="Path_1350" data-name="Path 1350" d="M270.37,152.93s15,8.48,11.18,1.33l-19.61-29h0l22.26,28.61s14.21,19.51,6.44,33c0,0-1.14,11.18.19,13.83s-.38,30.89-.38,30.89-5.3-4.93-8.15-4-22.92,2.65-22.92,2.65Z" transform="translate(-47.655 -24.1)" opacity="0.1"/>
      <path id="Path_1351" data-name="Path 1351" d="M289.12,225.69l-.28,5.24c-1.8-1.31-4.3-2.77-6-2.22-2.84.95-22.92,2.66-22.92,2.66l.92-6.52Z" transform="translate(-47.551 -24.1)" opacity="0.1"/>
      <path id="Path_1352" data-name="Path 1352" d="M270.94,152.93s15,8.48,11.17,1.33l-19.61-29h0l22.27,28.61s14.21,19.51,6.44,33c0,0-1.14,11.18.19,13.83s-.38,30.89-.38,30.89-5.31-4.93-8.15-4S260,230.23,260,230.23Z" transform="translate(-47.677 -24.1)" fill="#464353"/>
      <path id="Path_1353" data-name="Path 1353" d="M279,167.47c-.88,9.1-4.63,19.94-4.63,19.94s-2.64,26.91-6,34.87-1.9,18.94-3.8,39.21c-.68,7.3-3,12.31-6.2,15.7-5.22,5.57-12.67,6.73-18.55,6.38-.48,0-.94-.06-1.39-.1-9.48-1-18.57-46.61-18.57-46.61s-4.35-38.84-2.65-44.14-1.7-35.62-2.84-42.25c-.72-4.2,1.45-11.07,3.13-15.54,1-2.58,1.79-4.36,1.79-4.36s3.22-10.23,8.53-15.53a7.77,7.77,0,0,1,5.62-2.36,13.93,13.93,0,0,1,7,2.2l.24.16s34.49,35.24,37.7,43.38C279.22,160.7,279.31,164,279,167.47Z" transform="translate(-46.778 -24.1)" opacity="0.1"/>
      <path id="Path_1354" data-name="Path 1354" d="M277.83,166.9c-.88,9.1-4.62,19.94-4.62,19.94s-2.65,26.91-6.06,34.87-1.9,18.94-3.79,39.22c-.68,7.29-3,12.31-6.21,15.69-5.22,5.57-12.66,6.73-18.55,6.39l-1.39-.11c-9.47-.94-18.57-46.61-18.57-46.61s-4.35-38.84-2.65-44.14-1.7-35.62-2.84-42.25c-.72-4.2,1.45-11.07,3.13-15.54,1-2.58,1.79-4.36,1.79-4.36s3.23-10.23,8.53-15.53a7.83,7.83,0,0,1,5.62-2.36,13.93,13.93,0,0,1,7,2.2l.25.16s34.48,35.24,37.7,43.39C278.08,160.13,278.18,163.39,277.83,166.9Z" transform="translate(-46.729 -24.1)" fill="#5e5a6b"/>
      <path id="Path_1355" data-name="Path 1355" d="M239.2,305.59s-7.81,7-10.51,6.68S239.2,305.59,239.2,305.59Z" transform="translate(-45.984 -24.1)" opacity="0.1"/>
      <path id="Path_1356" data-name="Path 1356" d="M241.28,312.28s-8.24,3.82-10.7,4.39S238.1,311.29,241.28,312.28Z" transform="translate(-46.053 -24.1)" opacity="0.1"/>
      <path id="Path_1357" data-name="Path 1357" d="M273.16,207.68s12.22.15,14.07,4S277.14,206.12,273.16,207.68Z" transform="translate(-47.617 -24.1)" opacity="0.1"/>
      <path id="Path_1358" data-name="Path 1358" d="M271.46,214.36s9.38,2,12.22,4.27S271.46,214.36,271.46,214.36Z" transform="translate(-47.514 -24.1)" opacity="0.1"/>
      <path id="Path_1359" data-name="Path 1359" d="M255.69,191.2s-1.13,38.51-5.33,43.48S255.69,191.2,255.69,191.2Z" transform="translate(-46.602 -24.1)" opacity="0.1"/>
      <path id="Path_1360" data-name="Path 1360" d="M245.17,300.05s-7.8,34,7.89,36.09,10.87-38.65,10.87-38.65Z" transform="translate(-46.745 -24.1)" opacity="0.1"/>
      <path id="Path_1361" data-name="Path 1361" d="M244.6,299.48s-7.8,34,7.89,36.09,10.87-38.65,10.87-38.65Z" transform="translate(-46.725 -24.1)" fill="#a1616a"/>
      <path id="Path_1362" data-name="Path 1362" d="M296.11,75.88A10.89,10.89,0,0,1,295,73.82c-2.09-4.35-7.45-2.23-11.39-.14l-2.11,2.7a17.5,17.5,0,0,0-2.4,3.7,29.48,29.48,0,0,0-1,3.32c-.54,1.92-1.34,3.76-2.06,5.63a66.171,66.171,0,0,0-4.21,19.5,31.1,31.1,0,0,1-5.41.48h-.13v-.14c.2-.75.37-1.51.52-2.27h0a39.37,39.37,0,0,0,.3-13v-.28c-.15-1-.33-1.93-.42-2.9-.36.67-.71,1.34-1.08,2-2.37,4.46-4.87,8.83-9.36,10.78a19.53,19.53,0,0,1-5.69,1.28,32.511,32.511,0,0,0-7.11,1.18,4.5,4.5,0,0,0-2.07,1.25,6.17,6.17,0,0,0-1,3.11,25.41,25.41,0,0,1-1.13,4.32,37.88,37.88,0,0,1-9.25,13.8l-1,1a19.18,19.18,0,0,1-6.14,4.25,18.54,18.54,0,0,1-6.51,1c1-2.58,1.79-4.36,1.79-4.36s3.23-10.23,8.53-15.53a7.83,7.83,0,0,1,5.62-2.36A83.25,83.25,0,0,0,242.45,96.9a29.84,29.84,0,1,1,53.66-21Z" transform="translate(-47.323 -24.1)" opacity="0.1"/>
      <path id="Path_1363" data-name="Path 1363" d="M298,52.61c-1.77-2-4.25-3.12-6.64-4.25a5,5,0,0,1-2.15-1.57,6.69,6.69,0,0,1-.67-2.71c-.83-5.77-6.19-9.76-11.53-12.1-6.87-3-15.12-4.3-21.72-.72-3.2,1.74-5.74,4.47-8.63,6.69-3.66,2.81-7.89,4.77-11.8,7.23s-7.64,5.55-9.5,9.78c-2.87,6.52-.72,14-.35,21.12.56,11.21-4,22.94-13.06,29.58a11.53,11.53,0,0,0-2.87,2.51,3.15,3.15,0,0,0-.23,3.57,20.672,20.672,0,0,0,1.7,1.55c1,1.18.82,3,.42,4.5a28.22,28.22,0,0,1-7.58,13c.15,1.17,1.57,1.63,2.73,1.8a63.907,63.907,0,0,0,9.26.68,15.58,15.58,0,0,0,13-5.23c5.5-5.19,10.19-11.68,11.44-19.14a6.3,6.3,0,0,1,1-3.12,4.68,4.68,0,0,1,2.07-1.25c4.12-1.42,8.8-.72,12.8-2.46,5.18-2.25,7.7-7.7,10.44-12.8.09,1,.27,1.94.42,2.9a39.3,39.3,0,0,1-.77,15.61c-.74,2.88-1.82,5.75-1.74,8.73.06,2.18,2.3,13.75,5.25,10.29s1.86-11.1,1.87-15.39a65.92,65.92,0,0,1,4.34-23.48c.71-1.87,1.51-3.7,2.06-5.63a26.836,26.836,0,0,1,1-3.31,17.25,17.25,0,0,1,2.4-3.7l2.11-2.71c3.94-2.08,9.3-4.21,11.39.14.81,1.67,1.23,3.51,3.3,1.89,1.24-1,1.64-2.85,2-4.28C301.06,64.27,302.14,57.19,298,52.61Z" transform="translate(-47.332 -24.1)" fill="#464353"/>
      <path id="Path_1364" data-name="Path 1364" d="M258,156.92c-.81-20.41-29.36-24.63-36-5.33-.05.13-.09.26-.13.39-4.36,13.08-2.47,46.18-2.47,46.18s.57,22.22,2.66,29.61,7.95,28.61,7.95,32,5.45,16.48,7.74,17.43,3.46,8.33,4,9.66S244,305.45,244,305.45s21.41-1.33,21.79-4.74-4.74-20.08-4.74-20.08-3.77-6.82-4.25-12.32-3.51-8-2.95-11.74-1.7-5.69-1.7-8.15-1.71-9.1-1.71-9.1-3.6-2.84-3-6.25-5.11-10.23-3.6-12.69,1.9-8.53,1.9-8.53,1.89-27.28,3.22-34.67,9.09-19.32,9.09-19.32S258.05,157.52,258,156.92Z" transform="translate(-46.478 -24.1)" opacity="0.1"/>
      <path id="Path_1365" data-name="Path 1365" d="M257.15,276.62c-5.22,5.57-12.66,6.73-18.55,6.39-.67-2.59-1.67-5.76-3.12-6.36-2.3-.95-7.74-14-7.74-17.43s-5.87-24.63-8-32-2.65-29.61-2.65-29.61-1.9-33.1,2.46-46.17a1.441,1.441,0,0,1,.13-.4c6.67-19.3,35.23-15.08,36,5.33v.94s-7.77,11.93-9.09,19.32-3.23,34.67-3.23,34.67-.38,6.07-1.89,8.53,4.17,9.29,3.6,12.7,3,6.25,3,6.25,1.7,6.63,1.7,9.09,2.28,4.36,1.71,8.15,2.47,6.25,2.95,11.75A30.49,30.49,0,0,0,257.15,276.62Z" transform="translate(-46.231 -24.1)" opacity="0.1"/>
      <path id="Path_1366" data-name="Path 1366" d="M256.89,156.35c-.8-20.41-29.36-24.63-36-5.33a1.691,1.691,0,0,1-.13.4c-4.36,13.07-2.46,46.17-2.46,46.17s.56,22.22,2.65,29.61,8,28.61,8,32,5.44,16.48,7.74,17.43,3.45,8.33,4,9.66,2.27,18.57,2.27,18.57,21.4-1.33,21.78-4.74S260,280.06,260,280.06s-3.77-6.82-4.26-12.32-3.51-7.95-2.94-11.74-1.71-5.69-1.71-8.15-1.7-9.09-1.7-9.09-3.6-2.85-3-6.26-5.12-10.23-3.6-12.69,1.89-8.53,1.89-8.53,1.9-27.28,3.22-34.67,9.1-19.32,9.1-19.32A4.815,4.815,0,0,1,256.89,156.35Z" transform="translate(-46.436 -24.1)" fill="#5e5a6b"/>
      <path id="Path_1367" data-name="Path 1367" d="M221.72,208.82c.57-.57,11.37-12.5,14.78-8.24S221.72,208.82,221.72,208.82Z" transform="translate(-45.846 -24.1)" opacity="0.1"/>
      <path id="Path_1368" data-name="Path 1368" d="M222.72,218.06c.42-.43,10.8-.85,13.36-6.68S222.72,218.06,222.72,218.06Z" transform="translate(-45.848 -24.1)" opacity="0.1"/>
      <g id="Group_941" data-name="Group 941" transform="translate(156.384 36)" opacity="0.1">
        <path id="Path_1369" data-name="Path 1369" d="M210.9,113.29a2.79,2.79,0,0,1,.57,1,4.45,4.45,0,0,0-.57-3.87c-.51-.58-1.25-.92-1.71-1.54l-.09-.16a3,3,0,0,0,.09,3C209.65,112.36,210.39,112.71,210.9,113.29Z" transform="translate(-203.73 -60.1)"/>
        <path id="Path_1370" data-name="Path 1370" d="M225.36,76.46V73.24c-.2-3.87-.91-7.84-1.08-11.71-.22,4.74.84,9.73,1.08,14.55C225.36,76.2,225.35,76.33,225.36,76.46Z" transform="translate(-203.73 -60.1)"/>
        <path id="Path_1371" data-name="Path 1371" d="M269.64,123.92c-2.63,3.09-4.69-5.79-5.15-9.29a12.529,12.529,0,0,0-.09,1.84c.06,2.18,2.29,13.75,5.24,10.29,2-2.34,2.19-6.33,2.07-10C271.61,119.52,271.13,122.18,269.64,123.92Z" transform="translate(-203.73 -60.1)"/>
        <path id="Path_1372" data-name="Path 1372" d="M266.9,92.13a37.621,37.621,0,0,1,.41,4.5,39.209,39.209,0,0,0-.41-7.34c-.15-1-.33-1.93-.41-2.9-2.74,5.1-5.27,10.55-10.44,12.8-4,1.73-8.68,1-12.81,2.46a4.51,4.51,0,0,0-2.06,1.25,6.17,6.17,0,0,0-1,3.12c-1.25,7.46-5.94,14-11.45,19.14a15.5,15.5,0,0,1-13,5.22,62.32,62.32,0,0,1-9.26-.67,6.18,6.18,0,0,1-1.39-.36,14.963,14.963,0,0,1-1.35,1.4c.16,1.17,1.58,1.63,2.74,1.8a63.7,63.7,0,0,0,9.26.68,15.54,15.54,0,0,0,13-5.23c5.51-5.19,10.2-11.68,11.45-19.14a6.21,6.21,0,0,1,1-3.12,4.59,4.59,0,0,1,2.06-1.25c4.13-1.42,8.81-.72,12.81-2.46,5.17-2.25,7.7-7.7,10.44-12.8C266.57,90.2,266.75,91.17,266.9,92.13Z" transform="translate(-203.73 -60.1)"/>
        <path id="Path_1373" data-name="Path 1373" d="M300.06,67.45c-.32,1.43-.72,3.32-1.95,4.28-2.07,1.62-2.5-.22-3.3-1.89-2.09-4.35-7.46-2.23-11.39-.14l-2.11,2.7a17.371,17.371,0,0,0-2.4,3.7,29.492,29.492,0,0,0-1,3.32c-.54,1.92-1.34,3.76-2.06,5.63a65.84,65.84,0,0,0-4.34,23.48v1.16a66.159,66.159,0,0,1,4.32-21.8c.72-1.87,1.52-3.7,2.06-5.63a28.718,28.718,0,0,1,1-3.31,16.88,16.88,0,0,1,2.4-3.7l2.11-2.71c3.93-2.08,9.3-4.21,11.39.14.8,1.67,1.23,3.51,3.3,1.89,1.23-1,1.63-2.85,1.95-4.28a37,37,0,0,0,1.15-10.19A47.078,47.078,0,0,1,300.06,67.45Z" transform="translate(-203.73 -60.1)"/>
      </g>
      <path id="Path_1374" data-name="Path 1374" d="M325.9,175l.59.41a2.34,2.34,0,0,1-.6-3.26l26.33-38.23a2.35,2.35,0,0,1,3.26-.6l-.58-.4a3.76,3.76,0,0,1,1,5.23L331.14,174a3.77,3.77,0,0,1-5.24,1Z" transform="translate(-50.1 -24.1)" fill="#464353"/>
      <path id="Path_1375" data-name="Path 1375" d="M1.74,0h.72V51.11H1.74A1.74,1.74,0,0,1,0,49.37V1.74A1.74,1.74,0,0,1,1.74,0Z" transform="translate(303.463 107.884) rotate(34.56)" fill="#9f9eff"/>
      <rect id="Rectangle_138" data-name="Rectangle 138" width="0.47" height="4.17" rx="0.17" transform="translate(301.567 114.558) rotate(34.56)" fill="#464353"/>
    </g>
    <path id="Path_1435" data-name="Path 1435" d="M721.18,113.22c-18.25-4.87-36.68-9.76-55.56-10.54s-38.49,2.88-53.9,13.8c-7.71,5.46-14.11,12.53-20.6,19.41a668.226,668.226,0,0,1-114.66,96.94c-16.81,11.23-34.78,21.94-54.81,24.73s-42.66-4.15-53-21.51l6.16-3.16" transform="translate(-136.97 947.857)" fill="none" stroke="#000" stroke-miterlimit="10" stroke-width="0.75" stroke-dasharray="12" opacity="0.3"/>
    <path id="Path_1441" data-name="Path 1441" d="M917.284,116.444c-9.344-2.494-61.75-46.448-121.653-49.235-56.6-2.633-120.8,35.851-130.011,35.471-18.88-.78-223.94,152.09-243.97,154.88s-42.66-4.15-53-21.51l6.16-3.16" transform="translate(-162.631 854.857)" fill="none" stroke="#000" stroke-miterlimit="10" stroke-width="0.75" stroke-dasharray="12" opacity="0.3"/>
    <path id="Path_1440" data-name="Path 1440" d="M719.48,228.05l-57.61,21a1.13,1.13,0,0,0-.22,2l8.6,4.77a2.18,2.18,0,0,1,1,1.3l4.93,15.6c0,.66,1.2,1,1.31.36l.69-12.2a4.41,4.41,0,0,1,1.33-2.29l31.66-23a.71.71,0,0,1,.63-.08.64.64,0,0,1,.2,1.06l-28.15,25.67a5.4,5.4,0,0,0-1.29,2.26l-3,10.19c0,.92.64,1.37,1.34.64l6-5.27a1.09,1.09,0,0,1,1.55,0l11.82,11.6a1.08,1.08,0,0,0,1.78-.41l18.71-51.72a1.09,1.09,0,0,0-1.38-1.43Z" transform="translate(560.693 324.843) rotate(65)" fill="#6c63ff" opacity="0.5"/>
    <path id="Path_1442" data-name="Path 1442" d="M719.48,228.05l-57.61,21a1.13,1.13,0,0,0-.22,2l8.6,4.77a2.18,2.18,0,0,1,1,1.3l4.93,15.6c0,.66,1.2,1,1.31.36l.69-12.2a4.41,4.41,0,0,1,1.33-2.29l31.66-23a.71.71,0,0,1,.63-.08.64.64,0,0,1,.2,1.06l-28.15,25.67a5.4,5.4,0,0,0-1.29,2.26l-3,10.19c0,.92.64,1.37,1.34.64l6-5.27a1.09,1.09,0,0,1,1.55,0l11.82,11.6a1.08,1.08,0,0,0,1.78-.41l18.71-51.72a1.09,1.09,0,0,0-1.38-1.43Z" transform="translate(1002.998 285.806) rotate(87)" fill="#6c63ff" opacity="0.5"/>
    <path id="Path_1438" data-name="Path 1438" d="M361.57,513.7c21.35.53,45.42,0,60.17-15.44,11.2-11.72,13.83-28.89,17.6-44.66,6.81-28.47,19.19-55.87,38-78.32s44.2-39.75,72.62-46.73c22.84-5.62,46.86-4.56,69.82-9.61s143.84-14.674,150.19-37.314" transform="translate(-136.97 947.857)" fill="none" stroke="#000" stroke-miterlimit="10" stroke-width="0.75" stroke-dasharray="12" opacity="0.3"/>
    <path id="Path_1439" data-name="Path 1439" d="M719.48,228.05l-57.61,21a1.13,1.13,0,0,0-.22,2l8.6,4.77a2.18,2.18,0,0,1,1,1.3l4.93,15.6c0,.66,1.2,1,1.31.36l.69-12.2a4.41,4.41,0,0,1,1.33-2.29l31.66-23a.71.71,0,0,1,.63-.08.64.64,0,0,1,.2,1.06l-28.15,25.67a5.4,5.4,0,0,0-1.29,2.26l-3,10.19c0,.92.64,1.37,1.34.64l6-5.27a1.09,1.09,0,0,1,1.55,0l11.82,11.6a1.08,1.08,0,0,0,1.78-.41l18.71-51.72a1.09,1.09,0,0,0-1.38-1.43Z" transform="translate(-28.141 943.857)" fill="#6c63ff" opacity="0.5"/>
  </g>
</svg>
