<svg xmlns="http://www.w3.org/2000/svg" width="37" height="37" viewBox="0 0 37 37">
  <g id="_call" data-name=" call" transform="translate(-168 -1216)">
    <rect id="Path" width="37" height="37" transform="translate(168 1216)" fill="rgba(0,0,0,0)"/>
    <path id="Path-2" data-name="Path" d="M198.72,1240.948v2.667a3.06,3.06,0,0,1-3.191,3.083,26.2,26.2,0,0,1-24.5-24.5,3.06,3.06,0,0,1,3.083-3.192h2.667a3.085,3.085,0,0,1,3.068,2.729l.447,3.885a3.07,3.07,0,0,1-.879,2.528L176.566,1231a23.2,23.2,0,0,0,10.16,10.16l2.837-2.837a3.069,3.069,0,0,1,2.528-.879l3.916.447A3.056,3.056,0,0,1,198.72,1240.948Z" transform="translate(1.639 1.63)" fill="#6b5cff"/>
  </g>
</svg>
