<svg xmlns="http://www.w3.org/2000/svg" xmlns:xlink="http://www.w3.org/1999/xlink" width="16.669" height="31.478" viewBox="0 0 16.669 31.478">
  <defs>
    <clipPath id="clip-path">
      <path id="Path_1165" data-name="Path 1165" d="M16.066-31.993l-4-.007c-4.492,0-7.395,3.041-7.395,7.747v3.572H.653a.635.635,0,0,0-.629.642v5.175a.635.635,0,0,0,.629.642h4.02V-1.164A.635.635,0,0,0,5.3-.523h5.245a.635.635,0,0,0,.629-.642V-14.223h4.7a.635.635,0,0,0,.629-.642l0-5.175a.65.65,0,0,0-.184-.454.622.622,0,0,0-.445-.188h-4.7v-3.028c0-1.455.34-2.194,2.2-2.194h2.693a.635.635,0,0,0,.628-.642v-4.805A.636.636,0,0,0,16.066-31.993Z" fill="#6b5cff"/>
    </clipPath>
    <clipPath id="clip-path-2">
      <path id="Path_1164" data-name="Path 1164" d="M0,0H17V-32H0Z" fill="#6b5cff"/>
    </clipPath>
  </defs>
  <g id="Group_896" data-name="Group 896" transform="translate(-0.025 32)" clip-path="url(#clip-path)">
    <g id="Group_895" data-name="Group 895" clip-path="url(#clip-path-2)">
      <path id="Path_1163" data-name="Path 1163" d="M-4.975-37H21.694V4.477H-4.975Z" fill="#6b5cff"/>
    </g>
  </g>
</svg>
