<svg xmlns="http://www.w3.org/2000/svg" xmlns:xlink="http://www.w3.org/1999/xlink" width="32" height="25.714" viewBox="0 0 32 25.714">
  <defs>
    <clipPath id="clip-path">
      <path id="Path_1168" data-name="Path 1168" d="M105-25.958a13.22,13.22,0,0,1-3.769,1.023,6.533,6.533,0,0,0,2.885-3.59,13.321,13.321,0,0,1-4.171,1.577A6.579,6.579,0,0,0,95.154-29a6.53,6.53,0,0,0-6.565,6.492,6.445,6.445,0,0,0,.17,1.48A18.7,18.7,0,0,1,75.23-27.813a6.392,6.392,0,0,0-.888,3.264,6.473,6.473,0,0,0,2.919,5.4,6.619,6.619,0,0,1-2.973-.815v.081a6.519,6.519,0,0,0,5.265,6.368,6.717,6.717,0,0,1-1.73.227,6.367,6.367,0,0,1-1.236-.121,6.559,6.559,0,0,0,6.131,4.51,13.262,13.262,0,0,1-8.152,2.775A14.1,14.1,0,0,1,73-6.207,18.7,18.7,0,0,0,83.062-3.286a18.442,18.442,0,0,0,18.677-18.476l-.022-.841A13.032,13.032,0,0,0,105-25.958Z" fill="#6b5cff"/>
    </clipPath>
    <clipPath id="clip-path-2">
      <path id="Path_1167" data-name="Path 1167" d="M73-3h32V-29H73Z" fill="#6b5cff"/>
    </clipPath>
  </defs>
  <g id="Group_898" data-name="Group 898" transform="translate(-73 29)" clip-path="url(#clip-path)">
    <g id="Group_897" data-name="Group 897" clip-path="url(#clip-path-2)">
      <path id="Path_1166" data-name="Path 1166" d="M68-34h42V1.714H68Z" fill="#6b5cff"/>
    </g>
  </g>
</svg>
