<svg xmlns="http://www.w3.org/2000/svg" xmlns:xlink="http://www.w3.org/1999/xlink" width="27" height="31.911" viewBox="0 0 27 31.911">
  <defs>
    <clipPath id="clip-path">
      <path id="Path_1174" data-name="Path 1174" d="M285.838-8.658H284.06l.008-1.017a.832.832,0,0,1,.837-.822h.113a.833.833,0,0,1,.84.822Zm-6.669-2.18a.757.757,0,0,0-.82.664v4.947a.756.756,0,0,0,.82.663.757.757,0,0,0,.822-.663v-4.947A.757.757,0,0,0,279.169-10.838ZM290-13.605v9.412a4.282,4.282,0,0,1-4.417,4.1H267.418A4.282,4.282,0,0,1,263-4.194v-9.412a4.282,4.282,0,0,1,4.418-4.105h18.165A4.283,4.283,0,0,1,290-13.605ZM268.629-3.172v-9.914h2.252v-1.469l-6-.009v1.444l1.874.005v9.942Zm6.75-8.437H273.5v5.294a9.228,9.228,0,0,1,0,1.284c-.153.411-.839.847-1.106.044a10.382,10.382,0,0,1-.006-1.292l-.008-5.331h-1.867l.006,5.247c0,.8-.018,1.4.007,1.677.046.481.029,1.042.483,1.363.845.6,2.464-.089,2.868-.946l0,1.093,1.508,0Zm6.006,6.062,0-4.406c0-1.679-1.277-2.685-3.008-1.326l.008-3.276-1.875,0L276.5-3.245l1.542-.022.14-.7C280.149-2.191,281.388-3.411,281.385-5.547Zm5.876-.584-1.408.007c0,.055,0,.118,0,.188v.774a.763.763,0,0,1-.769.751H284.8a.763.763,0,0,1-.77-.751V-7.2h3.224V-8.392a18.58,18.58,0,0,0-.1-2.245c-.231-1.579-2.482-1.83-3.618-1.022a2.09,2.09,0,0,0-.788,1.044,5.8,5.8,0,0,0-.239,1.863v2.627C282.517-1.757,287.9-2.374,287.261-6.131ZM280.04-20.394a1.262,1.262,0,0,0,.451.562,1.323,1.323,0,0,0,.768.21,1.207,1.207,0,0,0,.719-.221,1.7,1.7,0,0,0,.527-.663l-.036.725h2.093v-8.765h-1.647v6.822a.681.681,0,0,1-.686.672.682.682,0,0,1-.685-.672v-6.822h-1.719v5.912c0,.753.014,1.255.037,1.51A2.508,2.508,0,0,0,280.04-20.394ZM273.7-25.345a7.189,7.189,0,0,1,.213-1.972,2.2,2.2,0,0,1,.769-1.137,2.244,2.244,0,0,1,1.419-.432,2.628,2.628,0,0,1,1.245.277,2.064,2.064,0,0,1,.8.719,2.815,2.815,0,0,1,.387.913,7.171,7.171,0,0,1,.1,1.435v2.217a11.83,11.83,0,0,1-.1,1.791,2.815,2.815,0,0,1-.413,1.065,1.945,1.945,0,0,1-.805.729,2.6,2.6,0,0,1-1.135.235,3.2,3.2,0,0,1-1.21-.2,1.657,1.657,0,0,1-.772-.608,2.677,2.677,0,0,1-.393-.983,9.335,9.335,0,0,1-.116-1.728Zm1.639,3.482a.872.872,0,0,0,.832.9.871.871,0,0,0,.831-.9v-4.666a.87.87,0,0,0-.831-.9.871.871,0,0,0-.832.9Zm-5.792,2.356h1.974l0-6.723,2.333-5.759H271.7l-1.24,4.278L269.2-32H267.06l2.482,5.774Z" fill="#6b5cff"/>
    </clipPath>
    <clipPath id="clip-path-2">
      <path id="Path_1173" data-name="Path 1173" d="M263,0h27V-32H263Z" fill="#6b5cff"/>
    </clipPath>
  </defs>
  <g id="Group_902" data-name="Group 902" transform="translate(-263 32)" clip-path="url(#clip-path)">
    <g id="Group_901" data-name="Group 901" clip-path="url(#clip-path-2)">
      <path id="Path_1172" data-name="Path 1172" d="M258-37h37V4.911H258Z" fill="#6b5cff"/>
    </g>
  </g>
</svg>
