<svg xmlns="http://www.w3.org/2000/svg" xmlns:xlink="http://www.w3.org/1999/xlink" width="28" height="26.857" viewBox="0 0 28 26.857">
  <defs>
    <clipPath id="clip-path">
      <path id="Path_1171" data-name="Path 1171" d="M203-12.534V-2.143h-6v-9.7c0-2.436-.868-4.1-3.04-4.1a3.285,3.285,0,0,0-3.079,2.2,4.135,4.135,0,0,0-.2,1.469v10.12h-6s.081-16.421,0-18.122h6V-17.7c-.012.019-.028.04-.039.059h.039V-17.7a5.957,5.957,0,0,1,5.41-2.994C200.039-20.69,203-18.1,203-12.534ZM178.4-29a3.137,3.137,0,0,0-3.4,3.13,3.115,3.115,0,0,0,3.317,3.133h.04a3.136,3.136,0,0,0,3.4-3.133A3.123,3.123,0,0,0,178.4-29Zm-3.04,26.857h6V-20.264h-6Z" fill="#6b5cff"/>
    </clipPath>
    <clipPath id="clip-path-2">
      <path id="Path_1170" data-name="Path 1170" d="M175-2h28V-29H175Z" fill="#6b5cff"/>
    </clipPath>
  </defs>
  <g id="Group_900" data-name="Group 900" transform="translate(-175 29)" clip-path="url(#clip-path)">
    <g id="Group_899" data-name="Group 899" clip-path="url(#clip-path-2)">
      <path id="Path_1169" data-name="Path 1169" d="M170-34h38V2.857H170Z" fill="#6b5cff"/>
    </g>
  </g>
</svg>
