<svg xmlns="http://www.w3.org/2000/svg" xmlns:xlink="http://www.w3.org/1999/xlink" width="33.667" height="15" viewBox="0 0 33.667 15">
  <defs>
    <clipPath id="clip-path">
      <path id="Path_1154" data-name="Path 1154" d="M7.993-14.667A6.663,6.663,0,0,0,1.333-8a6.663,6.663,0,0,0,6.66,6.667A6.671,6.671,0,0,0,14.667-8,6.671,6.671,0,0,0,7.993-14.667ZM8-2.667A5.332,5.332,0,0,1,2.667-8,5.332,5.332,0,0,1,8-13.333,5.332,5.332,0,0,1,13.333-8,5.332,5.332,0,0,1,8-2.667Zm.333-8.667h-1v4l3.5,2.1.5-.82-3-1.78Z" fill="none" clip-rule="evenodd"/>
    </clipPath>
    <clipPath id="clip-path-2">
      <path id="Path_1153" data-name="Path 1153" d="M0,0H16V-16H0Z" fill="none"/>
    </clipPath>
  </defs>
  <g id="Group_888" data-name="Group 888" transform="translate(-31.333 29)">
    <g id="Group_887" data-name="Group 887" transform="translate(30 -14)" clip-path="url(#clip-path)">
      <g id="Group_886" data-name="Group 886" clip-path="url(#clip-path-2)">
        <path id="Path_1152" data-name="Path 1152" d="M-3.667-19.667H19.667V3.667H-3.667Z" fill="#ff6382"/>
      </g>
    </g>
    <text id="_2h" data-name="2h" transform="translate(47 -17)" fill="#ff6382" font-size="15" font-family="Geometria-Bold, Geometria" font-weight="700"><tspan x="0" y="0">2h</tspan></text>
  </g>
</svg>
