<svg xmlns="http://www.w3.org/2000/svg" width="37" height="37" viewBox="0 0 37 37">
  <g id="_mail" data-name=" mail" transform="translate(-882 -1482)">
    <rect id="Path" width="37" height="37" transform="translate(882 1482)" fill="rgba(0,0,0,0)"/>
    <path id="Icon" d="M27.75,24.667H3.083A3.087,3.087,0,0,1,0,21.583V3.083A3.087,3.087,0,0,1,3.083,0H27.75a3.086,3.086,0,0,1,3.083,3.083v18.5A3.087,3.087,0,0,1,27.75,24.667ZM4.393,4.132A1.308,1.308,0,0,0,3.7,6.552l10.081,6.3a3.052,3.052,0,0,0,3.269,0l10.083-6.3a1.309,1.309,0,1,0-1.387-2.22l-10.33,6.46L5.088,4.332A1.33,1.33,0,0,0,4.393,4.132Z" transform="translate(885.083 1488.167)" fill="#6b5cff"/>
  </g>
</svg>
