<?xml version="1.0" encoding="utf-8"?>
<!-- Generator: Adobe Illustrator 23.0.3, SVG Export Plug-In . SVG Version: 6.00 Build 0)  -->
<svg version="1.1" xmlns="http://www.w3.org/2000/svg" xmlns:xlink="http://www.w3.org/1999/xlink" x="0px" y="0px"
	 viewBox="0 0 930.3 662" style="enable-background:new 0 0 930.3 662;" xml:space="preserve">
<style type="text/css">
	.st0{display:none;}
	.st1{display:inline;}
	.st2{opacity:0.7;}
	.st3{fill:url(#Path_1182_1_);}
	.st4{fill:#6C63FF;}
	.st5{fill:#E0E0E0;}
	.st6{fill:url(#Path_1186_1_);}
	.st7{fill:#72351C;}
	.st8{opacity:0.1;enable-background:new    ;}
	.st9{fill:#FDA57D;}
	.st10{fill:url(#Rectangle_63_1_);}
	.st11{fill:#535461;}
	.st12{fill:#FFFFFF;}
	.st13{fill:url(#SVGID_1_);}
	.st14{fill:url(#SVGID_2_);}
	.st15{fill:url(#SVGID_3_);}
	.st16{fill:url(#SVGID_4_);}
	.st17{fill:url(#SVGID_5_);}
	.st18{fill:url(#SVGID_6_);}
	.st19{fill:url(#SVGID_7_);}
	.st20{fill:url(#SVGID_8_);}
	.st21{fill:url(#SVGID_9_);}
	.st22{fill:url(#SVGID_10_);}
	.st23{fill:url(#SVGID_11_);}
</style>
<g id="Layer_1" class="st0">
	<g id="undraw_designer_kcp7" transform="translate(-41.16 0.01)" class="st1">
		<g id="Group_907" class="st2">
			
				<linearGradient id="Path_1182_1_" gradientUnits="userSpaceOnUse" x1="219.1393" y1="0.4554" x2="219.6232" y2="0.4554" gradientTransform="matrix(103.3196 0 0 91.82 -21811.8828 577.7854)">
				<stop  offset="0" style="stop-color:#808080;stop-opacity:0.251"/>
				<stop  offset="0.54" style="stop-color:#808080;stop-opacity:0.122"/>
				<stop  offset="1" style="stop-color:#808080;stop-opacity:0.102"/>
			</linearGradient>
			<path id="Path_1182" class="st3" d="M829.5,619.6h50"/>
		</g>
		<path id="Path_1185_2_" class="st4" d="M883.1,615.6L883.1,615.6h-55.3"/>
		<rect id="Rectangle_62" x="287" y="615.6" class="st5" width="684.4" height="32.9"/>
		<g id="Group_908" class="st2">
			
				<linearGradient id="Path_1186_1_" gradientUnits="userSpaceOnUse" x1="220.428" y1="0.9059" x2="220.428" y2="-9.394994e-02" gradientTransform="matrix(351.91 0 0 531.16 -77084.4844 50.0025)">
				<stop  offset="0" style="stop-color:#808080;stop-opacity:0.251"/>
				<stop  offset="0.54" style="stop-color:#808080;stop-opacity:0.122"/>
				<stop  offset="1" style="stop-color:#808080;stop-opacity:0.102"/>
			</linearGradient>
			<path id="Path_1186" class="st6" d="M639,395.3c-10.4-37.8-69.4-65.4-113.8-71.5v-33.2h0.1v-1.3c31.9-11.9,56.6-37.8,67-70.2
				c2.7-5,5.1-10.1,7.2-15.4c4.7-1.7,8.3-9.5,8.3-18.9c0-3.2-0.4-6.4-1.3-9.5c0.6-4.8,0.9-9.6,0.9-14.4c0-34.1-14.4-66.6-39.7-89.4
				c0.4-1.9,0.5-3.9,0.4-5.9c-1-15.5-17.6-26.1-33.1-26.8c8.4-9.5,10.5-23,5.5-34.6c-9.9,14.4-30.3,16-47.8,16.1
				c7.6-2.9,11-13.4,6.6-20.2c-18.3,24.5-54,29.1-75.8,50.6c-4.7,4.7-8.7,10.1-11.8,16.1c-28.7,22.8-45.3,57.5-45.3,94.1
				c0,4.8,0.3,9.5,0.9,14.3c-0.9,3.1-1.4,6.4-1.4,9.6c0,9.4,3.6,17.3,8.4,19c2,5.3,4.4,10.5,7.2,15.5c10.3,32.3,34.8,58.1,66.5,70
				v34.6c-44.6,6-104.1,33.8-114.4,71.9c-8.9,32.9-18.4,69-23.2,90.2c40.6,28.5,125.7,45.2,179,45.2c50.7,0,133.5-15.1,172.9-41.1
				C658.1,466.7,648.3,429,639,395.3z"/>
		</g>
		<path id="Path_1187" class="st4" d="M489.3,521.7c48.9,0,128.8-14.6,166.8-39.6c-4.1-22.5-13.6-58.9-22.5-91.4
			c-11.4-41.5-83.5-70.2-126.5-70.2h-41.5c-43.2,0-115.4,28.9-126.6,70.6c-8.6,31.7-17.8,66.6-22.3,87.1
			C355.7,505.6,437.9,521.7,489.3,521.7z"/>
		<circle id="Ellipse_4" class="st7" cx="486.8" cy="164.5" r="116.2"/>
		<path id="Path_1188" class="st8" d="M449.3,261.3h74.5v59.6c0,20.6-16.7,37.2-37.2,37.2l0,0c-20.6,0-37.2-16.7-37.2-37.2
			L449.3,261.3L449.3,261.3z"/>
		<path id="Path_1189" class="st9" d="M460,258.5h53.1c5.9,0,10.7,4.8,10.7,10.7v48.9c0,20.6-16.7,37.2-37.2,37.2l0,0
			c-20.6,0-37.2-16.7-37.2-37.2v-48.9C449.3,263.3,454.1,258.5,460,258.5L460,258.5z"/>
		<path id="Path_1190" class="st8" d="M449.4,289.4c24,9,50.4,9,74.5,0.2v-9.1h-74.5L449.4,289.4L449.4,289.4z"/>
		<circle id="Ellipse_5" class="st9" cx="486.8" cy="187.7" r="106.8"/>
		<path id="Path_1191" class="st8" d="M410.7,90.6c0,0,45,91.3,171.9,38.3l-29.5-46.3l-52.4-18.8L410.7,90.6z"/>
		<path id="Path_1192" class="st7" d="M410.7,89.2c0,0,45,91.3,171.9,38.3l-29.5-46.3l-52.4-18.8L410.7,89.2z"/>
		<path id="Path_1193" class="st7" d="M410.4,83.1c3-9.4,8.3-17.9,15.3-24.9c21-20.8,55.4-25.1,73.1-48.8c4.2,6.6,1,16.7-6.3,19.5
			c16.9-0.1,36.5-1.6,46.1-15.5c4.8,11.2,2.7,24.2-5.3,33.4c15,0.7,31,10.9,32,25.8c0.7,10-5.6,19.4-13.8,25.1s-18.1,8.4-27.9,10.5
			C494.9,114.5,391.7,140.9,410.4,83.1z"/>
		<path id="Path_1194" class="st7" d="M593.6,188.6h-2.8l-55.1,49c-53-24.9-92,0-92,0l-57.8-47l-5.8,0.7
			c0.8,58.9,49.2,106.1,108.1,105.4S594.3,247.5,593.6,188.6L593.6,188.6L593.6,188.6z M486.6,256.4c-20.8,0-37.6-4.2-37.6-9.4
			s16.8-9.4,37.6-9.4s37.6,4.2,37.6,9.4S507.4,256.4,486.6,256.4z"/>
		<ellipse id="Ellipse_6" class="st9" cx="380" cy="187.6" rx="9.9" ry="18.6"/>
		<ellipse id="Ellipse_7" class="st9" cx="593.5" cy="187.6" rx="9.9" ry="18.6"/>
		<g id="Group_909" class="st2">
			
				<linearGradient id="Rectangle_63_1_" gradientUnits="userSpaceOnUse" x1="220.486" y1="0.7899" x2="220.486" y2="-0.2102" gradientTransform="matrix(413.12 0 0 237.89 -90601.4375 427.6993)">
				<stop  offset="0" style="stop-color:#808080;stop-opacity:0.251"/>
				<stop  offset="0.54" style="stop-color:#808080;stop-opacity:0.122"/>
				<stop  offset="1" style="stop-color:#808080;stop-opacity:0.102"/>
			</linearGradient>
			<path id="Rectangle_63" class="st10" d="M293.7,377.7h384.1c8,0,14.5,6.5,14.5,14.5v208.9c0,8-6.5,14.5-14.5,14.5H293.7
				c-8,0-14.5-6.5-14.5-14.5V392.2C279.2,384.2,285.7,377.7,293.7,377.7z"/>
		</g>
		<path id="Rectangle_64" class="st11" d="M313.5,382.1H658c14.8,0,26.8,12,26.8,26.8v179.8c0,14.8-12,26.8-26.8,26.8H313.5
			c-14.8,0-26.8-12-26.8-26.8V408.9C286.6,394.1,298.7,382.1,313.5,382.1z"/>
		<circle id="Ellipse_8" class="st12" cx="485.7" cy="498.9" r="13.5"/>
		<rect id="Rectangle_65" x="287.2" y="648.5" class="st5" width="643.1" height="13.5"/>
		<rect id="Rectangle_66" x="41.2" y="648.5" class="st8" width="889.1" height="4.5"/>
		<path id="Path_1195_2_" class="st8" d="M864.8,615.6L864.8,615.6h7.5"/>
	</g>
</g>
<g id="Layer_2">
</g>
<g id="Layer_3">
	<g>
		<polygon class="st5" points="482.6,648.5 482.6,615.6 252.5,615.6 245.8,615.6 245.8,648.5 246,648.5 		"/>
		
			<linearGradient id="SVGID_1_" gradientUnits="userSpaceOnUse" x1="179.3744" y1="0.9159" x2="179.3744" y2="-8.394994e-02" gradientTransform="matrix(351.91 0 0 531.16 -62641.0273 44.7009)">
			<stop  offset="0" style="stop-color:#808080;stop-opacity:0.251"/>
			<stop  offset="0.54" style="stop-color:#808080;stop-opacity:0.122"/>
			<stop  offset="1" style="stop-color:#808080;stop-opacity:0.102"/>
		</linearGradient>
		<path class="st13" d="M482.6,321.7v-0.8C482.6,321.2,482.6,321.5,482.6,321.7C482.6,321.7,482.6,321.7,482.6,321.7z"/>
		
			<linearGradient id="SVGID_2_" gradientUnits="userSpaceOnUse" x1="178.8884" y1="0.9159" x2="178.8884" y2="-8.394994e-02" gradientTransform="matrix(351.91 0 0 531.16 -62641.0273 44.7009)">
			<stop  offset="0" style="stop-color:#808080;stop-opacity:0.251"/>
			<stop  offset="0.54" style="stop-color:#808080;stop-opacity:0.122"/>
			<stop  offset="1" style="stop-color:#808080;stop-opacity:0.102"/>
		</linearGradient>
		<path class="st14" d="M321.8,357.6c-8.1,6.1-15.1,12.8-20.4,20.1h2.3C308.1,370.5,314.4,363.7,321.8,357.6z"/>
		
			<linearGradient id="SVGID_3_" gradientUnits="userSpaceOnUse" x1="179.1181" y1="0.9159" x2="179.1181" y2="-8.394994e-02" gradientTransform="matrix(351.91 0 0 531.16 -62641.0273 44.7009)">
			<stop  offset="0" style="stop-color:#808080;stop-opacity:0.251"/>
			<stop  offset="0.54" style="stop-color:#808080;stop-opacity:0.122"/>
			<stop  offset="1" style="stop-color:#808080;stop-opacity:0.102"/>
		</linearGradient>
		<path class="st15" d="M342.9,218.9c-2.2-4.2-4.2-8.5-5.9-13c-4.6-1.6-8.1-9.2-8.1-18.3c0-3.4,0.5-6.5,1.3-9.3
			c-0.5-4.5-0.8-9.2-0.8-13.8c0-36.8,17.1-69.6,43.8-90.9c3-5.7,6.8-10.9,11.3-15.4c21-20.8,55.4-25.1,73.1-48.8
			c0.6,1,1.1,2,1.4,3.1c1.6-4,1.5-8.8-0.9-12.4c-18.3,24.5-54,29.1-75.8,50.6c-4.7,4.7-8.7,10.1-11.8,16.1
			c-28.7,22.8-45.3,57.5-45.3,94.1c0,4.8,0.3,9.5,0.9,14.3c-0.9,3.1-1.4,6.4-1.4,9.6c0,9.4,3.6,17.3,8.4,19c2,5.3,4.4,10.5,7.2,15.5
			c9.8,30.7,32.4,55.5,61.9,68.1C373.6,274.6,351.6,249.6,342.9,218.9z"/>
		
			<linearGradient id="SVGID_4_" gradientUnits="userSpaceOnUse" x1="179.1611" y1="0.9159" x2="179.1611" y2="-8.394994e-02" gradientTransform="matrix(351.91 0 0 531.16 -62641.0273 44.7009)">
			<stop  offset="0" style="stop-color:#808080;stop-opacity:0.251"/>
			<stop  offset="0.54" style="stop-color:#808080;stop-opacity:0.122"/>
			<stop  offset="1" style="stop-color:#808080;stop-opacity:0.102"/>
		</linearGradient>
		<path class="st16" d="M408.2,320.9l-0.1-31c-0.5-0.2-0.9-0.3-1.3-0.5v32.5c0.5-0.1,0.9-0.1,1.4-0.2
			C408.3,321.4,408.2,321.2,408.2,320.9z"/>
		
			<linearGradient id="SVGID_5_" gradientUnits="userSpaceOnUse" x1="179.33" y1="0.9159" x2="179.33" y2="-8.394994e-02" gradientTransform="matrix(351.91 0 0 531.16 -62641.0273 44.7009)">
			<stop  offset="0" style="stop-color:#808080;stop-opacity:0.251"/>
			<stop  offset="0.54" style="stop-color:#808080;stop-opacity:0.122"/>
			<stop  offset="1" style="stop-color:#808080;stop-opacity:0.102"/>
		</linearGradient>
		<path class="st17" d="M451.3,28.9c10.4-0.1,21.8-0.7,31.3-4.3v-8.3c-7.3,2.6-15.6,3.5-23.7,3.9C457.8,24,455.1,27.5,451.3,28.9z"
			/>
		<path class="st4" d="M406.8,321.9c-28.2,4.1-62.3,17-85,35.7c23.8-17.8,57.3-30,85-33.7V321.9z"/>
		<path class="st4" d="M303.3,378.4l179.3,3.7v-60.4c0,0,0,0,0,0c-0.4,20.2-17,36.4-37.2,36.4c-20.3,0-36.8-16.3-37.2-36.4
			c-0.5,0.1-0.9,0.1-1.4,0.2v2c-27.7,3.7-61.2,15.9-85,33.7C314.4,363.7,307.7,371.2,303.3,378.4z"/>
		<path class="st7" d="M338.8,206.2c-0.6,0-1.2-0.1-1.8-0.3c1.7,4.5,3.7,8.8,5.9,13c-1.2-4.2-2.1-8.5-2.8-12.9
			C339.7,206.1,339.3,206.2,338.8,206.2z"/>
		<path class="st7" d="M338.8,169c0.5,0,1.1,0.1,1.6,0.3c4-23.2,15.5-43.8,31.9-59.3c-5.5-5.7-7.2-14.3-3.1-26.9
			c1-3.3,2.4-6.4,4-9.5c-26.7,21.3-43.8,54.1-43.8,90.9c0,4.7,0.3,9.3,0.8,13.8C332,172.8,335.2,169,338.8,169z"/>
		
			<linearGradient id="SVGID_6_" gradientUnits="userSpaceOnUse" x1="179.3742" y1="0.9159" x2="179.3742" y2="-8.394994e-02" gradientTransform="matrix(351.91 0 0 531.16 -62641.0273 44.7009)">
			<stop  offset="0" style="stop-color:#808080;stop-opacity:0.251"/>
			<stop  offset="0.54" style="stop-color:#808080;stop-opacity:0.122"/>
			<stop  offset="1" style="stop-color:#808080;stop-opacity:0.102"/>
		</linearGradient>
		<path class="st18" d="M482.6,321.7c0-0.3,0-0.6,0-0.8v-2.8c0,1.2-0.1,2.4-0.2,3.6C482.5,321.7,482.6,321.7,482.6,321.7z"/>
		<path class="st8" d="M482.6,321.7c0-0.3,0-0.6,0-0.8v-2.8c0,1.2-0.1,2.4-0.2,3.6C482.5,321.7,482.6,321.7,482.6,321.7z"/>
		
			<linearGradient id="SVGID_7_" gradientUnits="userSpaceOnUse" x1="179.1632" y1="0.9159" x2="179.1632" y2="-8.394994e-02" gradientTransform="matrix(351.91 0 0 531.16 -62641.0273 44.7009)">
			<stop  offset="0" style="stop-color:#808080;stop-opacity:0.251"/>
			<stop  offset="0.54" style="stop-color:#808080;stop-opacity:0.122"/>
			<stop  offset="1" style="stop-color:#808080;stop-opacity:0.102"/>
		</linearGradient>
		<path class="st19" d="M408.2,318.1v-28.2c0,0,0,0-0.1,0l0.1,31c0,0.3,0,0.5,0,0.8c0.1,0,0.1,0,0.2,0
			C408.3,320.5,408.2,319.3,408.2,318.1z"/>
		<path class="st8" d="M408.2,318.1v-28.2c0,0,0,0-0.1,0l0.1,31c0,0.3,0,0.5,0,0.8c0.1,0,0.1,0,0.2,0
			C408.3,320.5,408.2,319.3,408.2,318.1z"/>
		<path class="st4" d="M445.4,355.3c-19.4,0-35.2-14.8-37-33.7c-0.1,0-0.1,0-0.2,0c0.4,20.1,16.8,36.4,37.2,36.4
			c20.2,0,36.7-16.2,37.2-36.4c-0.1,0-0.1,0-0.2,0C480.6,340.6,464.7,355.3,445.4,355.3z"/>
		<path class="st8" d="M445.4,355.3c-19.4,0-35.2-14.8-37-33.7c-0.1,0-0.1,0-0.2,0c0.4,20.1,16.8,36.4,37.2,36.4
			c20.2,0,36.7-16.2,37.2-36.4c-0.1,0-0.1,0-0.2,0C480.6,340.6,464.7,355.3,445.4,355.3z"/>
		<path class="st9" d="M408.2,289.9v28.2c0,1.2,0.1,2.4,0.2,3.5c5.6-0.7,11-1.1,16-1.1h41.5c5.1,0,10.7,0.4,16.5,1.2
			c0.1-1.2,0.2-2.4,0.2-3.6v-28c-11.1,4.1-23.1,6.4-35.6,6.6C433.4,296.9,420.3,294.5,408.2,289.9z"/>
		<path class="st9" d="M445.4,355.3c19.3,0,35.2-14.7,37-33.6c0-23.3-11.1-18-16.3-18h-41.5c-5,0-16.3-8.2-16.3,18
			C410.2,340.5,426,355.3,445.4,355.3z"/>
		<path class="st9" d="M392.8,118.7c-8.6-1.3-15.8-4-20.4-8.7c-16.4,15.5-27.9,36.1-31.9,59.3c4.7,1.4,8.3,9.1,8.3,18.3
			c0,2-0.2,4-0.5,5.8l54.3,44.2c0,0,33.3-21.2,80.1-4.9v-88.1C439.6,149,410.6,134,392.8,118.7z"/>
		<path class="st9" d="M445.4,237.6c-20.8,0-37.6,4.2-37.6,9.4s16.8,9.4,37.6,9.4c18.9,0,34.6-3.5,37.2-8v-2.7
			C480,241.1,464.4,237.6,445.4,237.6z"/>
		<path class="st9" d="M394.8,119c-0.7-0.1-1.3-0.2-2-0.3c17.8,15.3,46.8,30.3,89.9,26v-1.4C441.1,147.5,412.7,133.7,394.8,119z"/>
		<path class="st8" d="M394.8,119c-0.7-0.1-1.3-0.2-2-0.3c17.8,15.3,46.8,30.3,89.9,26v-1.4C441.1,147.5,412.7,133.7,394.8,119z"/>
		<path class="st7" d="M391.8,118.6c18,14.7,49.4,29.5,90.9,25.3v-35.7c-0.1,0-3.1-1-3.2-1C462.6,110.9,420.2,122.1,391.8,118.6z"/>
		<path class="st7" d="M449.1,21.2c2.4,0,7.3-0.9,9.8-1c0.7-2.5,0.8-5.1,0.1-7.6C457.6,16,452.6,19.8,449.1,21.2z"/>
		<path class="st7" d="M384.5,58.2c-4.6,4.6-8.4,9.8-11.3,15.4c19.9-15.9,45-25.3,72.4-25.3c12.9,0,25.4,2.1,37,6V24.6
			c-9.5,3.7-20.9,4.3-31.3,4.3c3.8-1.5,6.5-4.9,7.6-8.8c-2.5,0.1-5,0.1-7.4,0.2c3.5-1.3,6.1-4.3,7.5-7.8c-0.3-1.1-0.7-2.2-1.4-3.1
			C439.9,33.1,405.5,37.4,384.5,58.2z"/>
		<path class="st7" d="M373.2,73.7c-2.7,2.8-4.8,4.9-6.1,8.2c-25.7,65-10.3,39.2,5.3,28.2c2.1-2,4.2-3.8,6.5-5.6
			c-6.4-7.9-9.3-13.8-9.3-13.8l0.6-0.2c-0.4-0.8-0.6-1.2-0.6-1.2l93.1,21.7l20-40.2V54.3c-11.6-3.9-16.3-22.2-29.2-22.2
			C426,32.1,393.1,57.8,373.2,73.7z"/>
		<path class="st7" d="M378.8,104.4c-2.2,1.8-4.4,3.7-6.5,5.6c4.6,4.7,11.8,7.4,20.4,8.7C387,113.8,382.4,108.8,378.8,104.4z"/>
		<path class="st7" d="M370.2,90.4l-0.6,0.2c0,0,2.9,5.9,9.3,13.8c0.2-0.2,0.5-0.4,0.7-0.6C374.4,97.7,371.4,92.6,370.2,90.4z"/>
		<path class="st7" d="M394.5,120.4c0.7,0.1,13.8,1.4,14.5,1.5c-6.3-5.2-25.1-16.6-29-21.2c-0.2,0.2-13.5,5.5-13.8,5.7
			C369.8,110.7,388.7,115.4,394.5,120.4z"/>
		<path class="st7" d="M369.5,89.2c0,0,0.2,0.4,0.6,1.2l89.4-26.6l23.1,8.3v-1.4l-23.1-8.3L369.5,89.2z"/>
		<path class="st7" d="M358.8,93c1.2,2.2-2.4,14.7,6.9,17.5c18.2-14.4,55-29.6,79.9-29.6c13,0,25.5,2.3,37,6.6V72.1l-23.1-8.3
			L358.8,93z"/>
		<path class="st7" d="M375.9,97.8c3.9,4.7,12.6,16,18.9,21.2c28.5,3.5,71.1,12,87.9,8.3c0.1,0-0.1-19.1,0-19.1V54.3
			c-11.5-4.3-24.2,24.8-37.2,24.8C420.5,79.2,394,83.5,375.9,97.8z"/>
		<path class="st7" d="M402.2,287.4c1.5,0.7,3.1,1.3,4.6,1.9v-0.1C405.3,288.7,403.7,288.1,402.2,287.4z"/>
		<path class="st7" d="M408.2,287.8c-30.1-11.3-53.8-35.8-64-66.5c-0.4-0.8-0.9-1.6-1.3-2.3c8.7,30.7,30.7,55.7,59.3,68.5
			c1.5,0.7,3.1,1.3,4.6,1.9v0.1c0.4,0.2,0.9,0.4,1.3,0.5L408.2,287.8z"/>
		<path class="st7" d="M340.2,206c0.7,4.4,1.6,8.7,2.8,12.9c0.4,0.8,0.8,1.6,1.3,2.3c-1.6-4.9-2.9-10.1-3.8-15.3
			C340.3,206,340.2,206,340.2,206z"/>
		<path class="st7" d="M408.2,289.4v-1.6c0,0,0,0-0.1,0l0,2.2c0,0,0,0,0.1,0V289.4z"/>
		<path class="st7" d="M408.2,289.4v0.5c12.1,4.5,25.1,6.9,38.8,6.8c12.5-0.1,24.5-2.5,35.6-6.6v-0.5
			C458.6,298.4,432.2,298.4,408.2,289.4z"/>
		<polygon class="st7" points="408.2,289.4 408.2,289.4 408.2,287.8 408.2,287.8 		"/>
		<path class="st7" d="M408.2,287.8v1.6h0c24,9,50.3,9,74.4,0.2v-1.7c-11.5,4.3-24,6.6-37,6.6C432.5,294.5,419.9,292.1,408.2,287.8z
			"/>
		<path class="st7" d="M344.2,221.2c9.2,31.1,33.5,57.3,64,66.5l3.3-21.8C384.2,256.6,358.1,246,344.2,221.2z"/>
		<path class="st7" d="M402.5,237.6l-54.3-44.2c-1.1,6.5-4.2,11.4-7.8,12.5c0.9,5.2,2.2,10.3,3.8,15.3c13.9,24.8,36.6,44,63.9,53.3
			l0-13.2h3.5c1.9-1.7,4.4-2.8,7.2-2.8h53.1c2.8,0,5.3,1.1,7.2,2.8h3.5v-12.9c-2.6,4.5-18.3,8-37.2,8c-20.8,0-37.6-4.2-37.6-9.4
			s16.8-9.4,37.6-9.4c18.9,0,34.6,3.5,37.2,8v-12.9C435.8,216.4,402.5,237.6,402.5,237.6z"/>
		<path class="st7" d="M408.2,274.6C408.2,274.5,408.2,274.5,408.2,274.6l-0.1,13.2c0,0,0,0,0.1,0V274.6z"/>
		<path class="st7" d="M408.2,269.2c-0.1-3.1,1.3-5.9,3.4-7.9h-3.5l0,13.2c0,0,0.1,0,0.1,0V269.2z"/>
		<path class="st7" d="M482.6,269.2v-7.9h-3.5C481.3,263.3,482.6,266.1,482.6,269.2z"/>
		<path class="st7" d="M471.9,258.5h-53.1c-2.8,0-5.3,1.1-7.2,2.8h67.5C477.2,259.6,474.7,258.5,471.9,258.5z"/>
		<path class="st7" d="M408.2,287.8v-7.3h30.6c-10.7-0.6-20.9-2.7-30.6-6L408.2,287.8C408.2,287.8,408.2,287.8,408.2,287.8z"/>
		<path class="st7" d="M482.6,280.5v-5.8c-9.6,3.2-19.7,5.2-30.2,5.8H482.6z"/>
		<path class="st7" d="M405.7,257c-2.1,2-3.2,8.3-3.2,11.5l5.7,6.1c9.7,3.3,20,5.3,30.6,6h13.5c10.5-0.6,20.7-2.6,30.2-5.8v-5.5
			c0-3.1-0.5-9.7-2.6-11.7L405.7,257z"/>
		<path class="st7" d="M445.2,272c-2.3,0-32.2-9.1-34.4-9.3l-10.8,8.7l6.8,16.6c11.6,4.4,25.4,7.5,38.6,7.5c13,0,25.6-2.4,37.1-6.6
			l0.1-8.3l-0.1-16.5C480.3,264.1,447.5,272,445.2,272z"/>
		<path class="st7" d="M452.4,280.5h-13.5c2.2,0.1,4.5,0.2,6.8,0.2S450.2,280.6,452.4,280.5z"/>
		<path class="st9" d="M328.9,187.6c0,9.1,3.5,16.7,8.1,18.3c-3.3-8.7-5.6-18-6.8-27.5C329.4,181.1,328.9,184.2,328.9,187.6z"/>
		<path class="st9" d="M340.2,206c-0.6-4.1-1-8.3-1.2-12.5c-0.1-1.9-0.2-3.8-0.2-5.8c0-6.3,0.5-12.4,1.6-18.4
			c-0.5-0.2-1-0.3-1.6-0.3c-3.7,0-6.9,3.8-8.6,9.3c1.1,9.6,3.4,18.8,6.8,27.5c0.6,0.2,1.2,0.3,1.8,0.3
			C339.3,206.2,339.7,206.1,340.2,206z"/>
		<path class="st9" d="M334.3,202.9c2.3,7.1,16.5,2.5,9.3-9l1.2-3.2l3.5,2.8c0.3-1.8,21.8-23.6,21.8-25.7c0-9.3-24.9,2.9-29.6,1.5
			c-1,6-10.2,11.7-10.2,18C330.3,189.2,333.7,201,334.3,202.9z"/>
		<path class="st9" d="M340.2,206c0.1,0,0.2,0,0.2-0.1c-0.7-4.1-1.2-8.2-1.4-12.5C339.1,197.7,339.5,201.9,340.2,206z"/>
		<path class="st9" d="M338.9,191.3c0,0.7,0,1.5,0.1,2.2c0.2,4.2,0.7,8.4,1.4,12.5c3.7-1.1,6.7-6,7.8-12.5l-3.5-2.8L338.9,191.3z"/>
		
			<linearGradient id="SVGID_8_" gradientUnits="userSpaceOnUse" x1="179.1221" y1="0.7999" x2="179.1221" y2="-0.2002" gradientTransform="matrix(413.12 0 0 237.89 -73638.5781 425.3304)">
			<stop  offset="0" style="stop-color:#808080;stop-opacity:0.251"/>
			<stop  offset="0.54" style="stop-color:#808080;stop-opacity:0.122"/>
			<stop  offset="1" style="stop-color:#808080;stop-opacity:0.102"/>
		</linearGradient>
		<path class="st20" d="M482.6,615.5H272.3c-14.8,0-26.8-12-26.8-26.8V408.9c-0.1-14.8,12-26.8,26.8-26.8h26.1
			c0.9-1.5,1.9-3,2.9-4.4h-48.8c-8,0-14.5,6.5-14.5,14.5v208.9c0,8,6.5,14.5,14.5,14.5L482.6,615.5L482.6,615.5z"/>
		
			<linearGradient id="SVGID_9_" gradientUnits="userSpaceOnUse" x1="178.8585" y1="0.9159" x2="178.8585" y2="-8.394994e-02" gradientTransform="matrix(351.91 0 0 531.16 -62641.0273 44.7009)">
			<stop  offset="0" style="stop-color:#808080;stop-opacity:0.251"/>
			<stop  offset="0.54" style="stop-color:#808080;stop-opacity:0.122"/>
			<stop  offset="1" style="stop-color:#808080;stop-opacity:0.102"/>
		</linearGradient>
		<path class="st21" d="M301.3,382.1c0.7-1.5,1.5-3,2.4-4.4h-2.3c-1,1.4-2,2.9-2.9,4.4H301.3z"/>
		
			<linearGradient id="SVGID_10_" gradientUnits="userSpaceOnUse" x1="178.9786" y1="0.7999" x2="178.9786" y2="-0.2002" gradientTransform="matrix(413.12 0 0 237.89 -73638.5781 425.3304)">
			<stop  offset="0" style="stop-color:#808080;stop-opacity:0.251"/>
			<stop  offset="0.54" style="stop-color:#808080;stop-opacity:0.122"/>
			<stop  offset="1" style="stop-color:#808080;stop-opacity:0.102"/>
		</linearGradient>
		<path class="st22" d="M301.3,382.1c0.7-1.5,1.5-3,2.4-4.4h-2.3c-1,1.4-2,2.9-2.9,4.4H301.3z"/>
		<path class="st4" d="M301.3,382.1h181.4v-4.4H303.7C302.8,379.2,302,380.6,301.3,382.1z"/>
		
			<linearGradient id="SVGID_11_" gradientUnits="userSpaceOnUse" x1="179.1986" y1="0.7999" x2="179.1986" y2="-0.2002" gradientTransform="matrix(413.12 0 0 237.89 -73638.5781 425.3304)">
			<stop  offset="0" style="stop-color:#808080;stop-opacity:0.251"/>
			<stop  offset="0.54" style="stop-color:#808080;stop-opacity:0.122"/>
			<stop  offset="1" style="stop-color:#808080;stop-opacity:0.102"/>
		</linearGradient>
		<path class="st23" d="M301.3,382.1h181.4v-4.4H303.7C302.8,379.2,302,380.6,301.3,382.1z"/>
		<path class="st11" d="M269.2,486c4.8-21.2,14.3-57.3,23.2-90.2c1.3-4.7,3.3-9.3,6-13.7h-26.1c-14.8,0-26.9,12-26.8,26.8v179.8
			c0,14.8,12,26.8,26.8,26.8h210.3v-86.2c-12.4,1.2-24.1,1.9-34.4,1.9C394.9,531.2,309.8,514.5,269.2,486z"/>
		<path class="st11" d="M275.5,478.2c4.5-20.5,13.7-55.4,22.3-87.1c0.8-3.1,2-6.1,3.4-9h-2.8c-2.7,4.4,21.1,18.3,19.8,23.1
			c-8.9,32.9-44.2,59.6-49,80.8c40.6,28.5,125.7,45.2,179,45.2c10.3,0,22-0.6,34.4-1.9v-9.6c-12.4,1.3-24.2,1.9-34.5,1.9
			C396.7,521.7,314.5,505.6,275.5,478.2z"/>
		<path class="st11" d="M285.6,384.2c-15.1,21.9-29.2,130.6-33.7,151.1c39,27.4,144.7,4.4,196.1,4.4c10.3,0,34.5,6.3,34.7-19.9
			V382.1H301.3C295.6,382.3,287.4,381.6,285.6,384.2z M444.5,485.4c7.5,0,13.5,6,13.5,13.5c0,7.5-6,13.5-13.5,13.5
			c-7.5,0-13.5-6-13.5-13.5C431,491.5,437.1,485.4,444.5,485.4z"/>
		<circle class="st12" cx="444.5" cy="498.9" r="13.5"/>
		<polyline class="st5" points="482.6,662 482.6,653 246,653 246,662 		"/>
		<polygon class="st8" points="245.8,648.5 0,648.5 0,653 246,653 246,648.5 		"/>
		<rect x="246" y="648.5" class="st5" width="236.6" height="4.5"/>
		<rect x="246" y="648.5" class="st8" width="236.6" height="4.5"/>
		<polyline class="st12" points="482.6,0 482.6,16.3 482.6,24.6 482.6,54.3 482.6,70.7 482.6,72.1 482.6,87.5 482.6,108.2 
			482.6,143.3 482.6,144.7 482.6,232.7 482.6,245.6 482.6,248.4 482.6,261.3 482.6,269.2 482.6,274.7 482.6,280.5 482.6,287.9 
			482.6,289.6 482.6,290.1 482.6,318.1 482.6,320.9 482.6,321.7 482.6,377.7 482.6,382.1 482.6,519.8 482.6,529.4 482.6,615.5 
			482.6,615.6 482.6,648.5 482.6,653 482.6,662 		"/>
	</g>
</g>
</svg>
