<svg id="undraw_graduation_9x4i" xmlns="http://www.w3.org/2000/svg" xmlns:xlink="http://www.w3.org/1999/xlink" width="45.855" height="31.505" viewBox="0 0 45.855 31.505">
  <defs>
    <linearGradient id="linear-gradient" x1="0.5" y1="1" x2="0.5" gradientUnits="objectBoundingBox">
      <stop offset="0" stop-color="gray" stop-opacity="0.251"/>
      <stop offset="0.54" stop-color="gray" stop-opacity="0.122"/>
      <stop offset="1" stop-color="gray" stop-opacity="0.102"/>
    </linearGradient>
    <linearGradient id="linear-gradient-2" x1="-13.248" y1="4.947" x2="-13.248" y2="4.796" xlink:href="#linear-gradient"/>
  </defs>
  <path id="Path_1232" data-name="Path 1232" d="M183.263,236.43a1.01,1.01,0,0,0-.457-.858v-2.787h-.017v-.01h-1.973L160.09,227l-21.64,6.611v1.157l10.357,4.24-.6,11.3a44.263,44.263,0,0,0,13.255,2.29h.18c10.019-.147,11.879-5.924,11.879-5.924a38.509,38.509,0,0,1-.376-8.159l9.048-4.4-.129-.835h.137v2.178a.959.959,0,0,0-.753.84,1.013,1.013,0,0,0,.511,1.032l-.672,1.75a.587.587,0,0,0,.273.208l-1.8,5.246a4.025,4.025,0,0,0,.616.442l.29.209.007-.052a1.874,1.874,0,0,0,1.668.093l.152-.041-.024-.033a1.708,1.708,0,0,0,.337-.292l-.152-5.619-.13-1.836A.974.974,0,0,0,183.263,236.43Z" transform="translate(-138.45 -224.456)" fill="url(#linear-gradient)"/>
  <path id="Path_1233" data-name="Path 1233" d="M352.978,397.078s-3.584,9.828-27.039,3.432l.653-10.764,18.08-2.5,7.982,1.092A33.817,33.817,0,0,0,352.978,397.078Z" transform="translate(-316.975 -377.565)" fill="#6c63ff"/>
  <path id="Path_1234" data-name="Path 1234" d="M198.5,244.192v.936l14.158,4.524,12.453-4.836.171-.936-12.623,4.212Z" transform="translate(-189.45 -230.886)" opacity="0.15"/>
  <path id="Path_1235" data-name="Path 1235" d="M570.1,388.352l-7.644-1.092-.25.036,7.391,1.056a35.348,35.348,0,0,0,.312,8.736s-1.922,5.506-12.311,5.593c10.829.09,12.814-5.593,12.814-5.593A35.37,35.37,0,0,1,570.1,388.352Z" transform="translate(-535.438 -377.575)" opacity="0.15"/>
  <rect id="Rectangle_69" data-name="Rectangle 69" width="0.624" height="2.817" transform="translate(43.105 7.896)" fill="#6c63ff"/>
  <rect id="Rectangle_70" data-name="Rectangle 70" width="0.624" height="2.817" transform="translate(43.105 7.896)" opacity="0.1"/>
  <path id="Path_1236" data-name="Path 1236" d="M897.22,434.25s1.872,1.577,3.12.312l-.156-5.3-.936-.468Z" transform="translate(-856.61 -415.656)" fill="#6c63ff"/>
  <path id="Path_1237" data-name="Path 1237" d="M897.22,434.25s1.872,1.577,3.12.312l-.156-5.3-.936-.468Z" transform="translate(-856.61 -415.656)" opacity="0.1"/>
  <path id="Path_1238" data-name="Path 1238" d="M10.88,153.3v1.092l22.351,8.892,20.13-9.516-.148-.936-20.131,9.36Z" transform="translate(-10.265 -144.79)" fill="#6c63ff"/>
  <path id="Path_1239" data-name="Path 1239" d="M10.88,153.3v1.092l22.351,8.892,20.13-9.516-.148-.936-20.131,9.36Z" transform="translate(-10.265 -144.79)" opacity="0.07"/>
  <path id="Path_1240" data-name="Path 1240" d="M10.88,56.98,33.186,66.1l20.02-9.586L31.895,50.74Z" transform="translate(-10.265 -47.871)" fill="#6c63ff"/>
  <ellipse id="Ellipse_9" data-name="Ellipse 9" cx="1.555" cy="1.01" rx="1.555" ry="1.01" transform="translate(20.573 6.87)" fill="#6c63ff"/>
  <ellipse id="Ellipse_10" data-name="Ellipse 10" cx="1.555" cy="1.01" rx="1.555" ry="1.01" transform="translate(20.573 6.87)" opacity="0.1"/>
  <rect id="Rectangle_71" data-name="Rectangle 71" width="21.684" height="0.468" transform="translate(22.028 7.919)" fill="#6c63ff"/>
  <rect id="Rectangle_72" data-name="Rectangle 72" width="21.684" height="0.468" transform="translate(22.028 7.919)" opacity="0.1"/>
  <ellipse id="Ellipse_11" data-name="Ellipse 11" cx="0.936" cy="0.936" rx="0.936" ry="0.936" transform="translate(42.326 10.288)" fill="#6c63ff"/>
  <ellipse id="Ellipse_12" data-name="Ellipse 12" cx="0.936" cy="0.936" rx="0.936" ry="0.936" transform="translate(42.326 10.288)" opacity="0.1"/>
  <path id="Path_1241" data-name="Path 1241" d="M924.81,403.072s.312.485,1.4.156l-.156-2.028h-.468Z" transform="translate(-882.64 -389.437)" fill="#6c63ff"/>
  <path id="Path_1242" data-name="Path 1242" d="M924.81,403.072s.312.485,1.4.156l-.156-2.028h-.468Z" transform="translate(-882.64 -389.437)" opacity="0.1"/>
  <path id="Path_1243" data-name="Path 1243" d="M766.89,335.71l.624-.78-.156,1.092Z" transform="translate(-725.821 -316.925)" fill="#fff" opacity="0.2"/>
  <path id="Path_1244" data-name="Path 1244" d="M797.24,340.45v.936l.624-.156Z" transform="translate(-754.455 -322.144)" fill="#fff" opacity="0.2"/>
  <path id="Path_1245" data-name="Path 1245" d="M381.1,530.73s4.68,1.56,7.488.622Z" transform="translate(-368.154 -511.978)" opacity="0.15"/>
  <path id="Path_1246" data-name="Path 1246" d="M606.22,528.055s4.923.309,7.4-1.315Z" transform="translate(-581.259 -508.215)" opacity="0.15"/>
  <path id="Path_1247" data-name="Path 1247" d="M666,578.988a22.377,22.377,0,0,0,4.33-2.188Z" transform="translate(-637.732 -555.616)" opacity="0.15"/>
  <path id="Path_1248" data-name="Path 1248" d="M359,572.12s4.994,2.029,6.242,1.248Z" transform="translate(-347.212 -551.16)" opacity="0.15"/>
  <ellipse id="Ellipse_13" data-name="Ellipse 13" cx="1.984" cy="0.297" rx="1.984" ry="0.297" transform="translate(0.929 21.148) rotate(-68.68)" fill="#e0e0e0"/>
  <ellipse id="Ellipse_14" data-name="Ellipse 14" cx="1.984" cy="0.202" rx="1.984" ry="0.202" transform="translate(25.476 30.679) rotate(-68.68)" fill="#e0e0e0"/>
  <rect id="Rectangle_73" data-name="Rectangle 73" width="1.191" height="3.968" transform="matrix(0.824, 0.566, -0.566, 0.824, 12.694, 24.535)" fill="#f55f44"/>
  <rect id="Rectangle_74" data-name="Rectangle 74" width="1.339" height="3.968" transform="matrix(-0.99, -0.142, 0.142, -0.99, 13.133, 28.878)" opacity="0.05"/>
  <rect id="Rectangle_75" data-name="Rectangle 75" width="1.191" height="3.968" transform="translate(13.058 28.913) rotate(-171.951)" fill="#f55f44"/>
  <rect id="Rectangle_76" data-name="Rectangle 76" width="4.167" height="27.68" transform="translate(1.169 20.77) rotate(-68.68)" fill="url(#linear-gradient-2)"/>
  <path id="Path_1249" data-name="Path 1249" d="M185.5,523.98c-.5-.189-26.155-10.209-25.785-10.064a13.872,13.872,0,0,0,1.443-3.7l25.785,10.064S186.21,521.883,185.5,523.98Z" transform="translate(-158.508 -493.237)" fill="#f5f5f5"/>
  <rect id="Rectangle_77" data-name="Rectangle 77" width="2.276" height="3.958" transform="translate(13.366 21.572) rotate(21.161)" opacity="0.05"/>
  <rect id="Rectangle_78" data-name="Rectangle 78" width="2.083" height="3.968" transform="translate(13.374 21.729) rotate(21.32)" fill="#f55f44"/>
  <rect id="Rectangle_79" data-name="Rectangle 79" width="1.389" height="3.968" transform="translate(13.647 21.842) rotate(21.32)" opacity="0.05"/>
  <rect id="Rectangle_80" data-name="Rectangle 80" width="1.191" height="3.968" transform="translate(13.737 21.88) rotate(21.32)" fill="#f55f44"/>
  <ellipse id="Ellipse_15" data-name="Ellipse 15" cx="0.166" cy="0.166" rx="0.166" ry="0.166" transform="translate(16.928 30.147) rotate(-0.86)" fill="#dbdbdb"/>
  <g id="Group_910" data-name="Group 910" transform="translate(4.441 25.119)" opacity="0.5">
    <rect id="Rectangle_81" data-name="Rectangle 81" width="0.17" height="0.961" transform="translate(0.396)" fill="#47e6b1"/>
    <rect id="Rectangle_82" data-name="Rectangle 82" width="0.17" height="0.961" transform="translate(0.961 0.396) rotate(90)" fill="#47e6b1"/>
  </g>
  <g id="Group_911" data-name="Group 911" transform="translate(44.894 14.518)" opacity="0.5">
    <rect id="Rectangle_83" data-name="Rectangle 83" width="0.17" height="0.961" transform="translate(0.396)" fill="#47e6b1"/>
    <rect id="Rectangle_84" data-name="Rectangle 84" width="0.17" height="0.961" transform="translate(0.961 0.396) rotate(90)" fill="#47e6b1"/>
  </g>
  <g id="Group_912" data-name="Group 912" transform="translate(5.459 3.336)" opacity="0.5">
    <rect id="Rectangle_85" data-name="Rectangle 85" width="0.17" height="0.961" transform="translate(0.396)" fill="#47e6b1"/>
    <rect id="Rectangle_86" data-name="Rectangle 86" width="0.17" height="0.961" transform="translate(0.961 0.396) rotate(90)" fill="#47e6b1"/>
  </g>
  <g id="Group_913" data-name="Group 913" transform="translate(39.806 1.866)" opacity="0.5">
    <rect id="Rectangle_87" data-name="Rectangle 87" width="0.17" height="0.961" transform="translate(0.396)" fill="#47e6b1"/>
    <rect id="Rectangle_88" data-name="Rectangle 88" width="0.17" height="0.961" transform="translate(0.961 0.396) rotate(90)" fill="#47e6b1"/>
  </g>
  <path id="Path_1250" data-name="Path 1250" d="M195.353,429.036a.207.207,0,0,1-.113-.251.1.1,0,0,0,0-.023h0a.1.1,0,0,0-.187-.069h0a.1.1,0,0,0-.011.02.208.208,0,0,1-.251.113l-.023,0h0a.1.1,0,0,0-.069.187h0a.1.1,0,0,0,.02.011.207.207,0,0,1,.113.251.1.1,0,0,0,0,.023h0a.1.1,0,0,0,.188.072h0a.1.1,0,0,0,.011-.02.208.208,0,0,1,.251-.113l.023,0h0a.1.1,0,0,0,.069-.187h0A.1.1,0,0,0,195.353,429.036Z" transform="translate(-191.483 -415.385)" fill="#4d8af0" opacity="0.5"/>
  <path id="Path_1251" data-name="Path 1251" d="M367.353,232.036a.208.208,0,0,1-.113-.251.1.1,0,0,0,0-.023h0a.1.1,0,0,0-.187-.069h0a.1.1,0,0,0-.011.02.208.208,0,0,1-.251.113l-.023,0h0a.1.1,0,0,0-.069.187h0a.1.1,0,0,0,.02.011.208.208,0,0,1,.113.251.1.1,0,0,0,0,.023h0a.1.1,0,0,0,.188.072h0a.1.1,0,0,0,.011-.02.207.207,0,0,1,.251-.113l.023,0h0a.1.1,0,0,0,.069-.187h0A.1.1,0,0,0,367.353,232.036Z" transform="translate(-354.382 -228.844)" fill="#4d8af0" opacity="0.5"/>
  <path id="Path_1252" data-name="Path 1252" d="M412.353,754.036a.207.207,0,0,1-.113-.251.1.1,0,0,0,0-.023h0a.1.1,0,0,0-.187-.069h0a.1.1,0,0,0-.011.02.207.207,0,0,1-.251.113l-.023,0h0a.1.1,0,0,0-.069.187h0a.1.1,0,0,0,.02.011.207.207,0,0,1,.113.251.1.1,0,0,0,0,.023h0a.1.1,0,0,0,.188.072h0a.108.108,0,0,0,.011-.02.207.207,0,0,1,.251-.113l.023,0h0a.1.1,0,0,0,.069-.187h0A.111.111,0,0,0,412.353,754.036Z" transform="translate(-396.961 -722.904)" fill="#4d8af0" opacity="0.5"/>
  <ellipse id="Ellipse_16" data-name="Ellipse 16" cx="0.339" cy="0.339" rx="0.339" ry="0.339" transform="translate(43.481 23.561)" fill="#f55f44" opacity="0.5"/>
  <ellipse id="Ellipse_17" data-name="Ellipse 17" cx="0.339" cy="0.339" rx="0.339" ry="0.339" transform="translate(29.357 30.54)" fill="#4d8af0" opacity="0.5"/>
  <ellipse id="Ellipse_18" data-name="Ellipse 18" cx="0.339" cy="0.339" rx="0.339" ry="0.339" transform="translate(34.845 24.583)" fill="#47e6b1" opacity="0.5"/>
  <ellipse id="Ellipse_19" data-name="Ellipse 19" cx="0.339" cy="0.339" rx="0.339" ry="0.339" transform="translate(24.836)" fill="#f55f44" opacity="0.5"/>
</svg>
